<svg width="383" height="562" viewBox="0 0 383 562" fill="none" xmlns="http://www.w3.org/2000/svg">
<g opacity="0.2">
<mask id="mask0_96_6798" style="mask-type:alpha" maskUnits="userSpaceOnUse" x="0" y="0" width="236" height="467">
<rect width="235.052" height="466.115" rx="21" fill="#81CBCE"/>
</mask>
<g mask="url(#mask0_96_6798)">
</g>
<g clip-path="url(#clip0_96_6798)">
<path d="M277.079 589.15C281.199 596.88 288.169 602.53 295.869 606.49C303.829 610.58 312.709 613.31 321.529 614.79C332.009 616.55 342.849 616.05 353.129 613.33C355.689 612.65 358.209 611.84 360.669 610.89C362.369 610.23 364.229 609.6 365.809 608.69C366.309 608.4 366.789 608.04 367.259 607.71C374.669 602.61 381.759 596.99 388.419 590.95C397.689 582.55 406.749 573.02 412.369 561.72C414.869 556.69 416.679 551.19 416.699 545.52C416.709 542.85 416.309 540.16 415.469 537.63C415.199 536.8 415.019 535.73 414.249 535.22C413.129 534.48 411.429 534.27 410.169 533.98C404.909 532.77 399.549 531.94 394.219 531.11C383.879 529.5 373.499 528.19 363.199 526.28C355.549 524.86 347.899 523.05 340.139 522.37C335.289 521.94 329.969 522.08 325.709 524.73C322.519 526.71 319.779 529.57 317.139 532.21C308.289 541.06 300.139 550.69 292.479 560.59C288.869 565.26 285.349 570.03 282.189 575.02C280.119 578.3 277.749 581.93 276.879 585.76C276.649 586.88 276.539 588.08 277.079 589.15C277.699 590.38 279.549 589.3 278.929 588.07C278.989 588.19 278.879 587.97 278.839 587.72C278.879 587.94 278.829 587.38 278.839 587.18C278.849 586.8 278.969 586.27 279.139 585.67C279.609 584.05 280.369 582.52 281.149 581.04C283.529 576.56 286.429 572.36 289.399 568.26C296.709 558.15 304.749 548.52 313.229 539.37C316.489 535.86 319.809 532.37 323.409 529.21C326.129 526.82 328.889 525.11 332.609 524.56C338.569 523.68 344.859 525.01 350.709 526.08C359.979 527.78 369.219 529.65 378.559 530.97C386.819 532.14 395.089 533.29 403.299 534.78C406.299 535.32 409.359 535.83 412.269 536.73C412.519 536.81 412.759 536.89 412.999 536.98C413.279 537.08 412.819 536.98 412.979 536.97C412.999 536.97 413.109 537.02 413.119 537.04C413.279 537.23 412.979 536.91 413.029 536.96C413.039 536.97 412.869 536.76 412.869 536.76C412.839 536.78 413.379 538.15 413.469 538.42C415.079 543.44 414.739 548.78 413.249 553.78C409.829 565.27 401.499 575.07 393.199 583.42C385.949 590.72 377.999 597.34 369.679 603.38C368.079 604.54 366.469 605.83 364.749 606.82C363.429 607.58 361.909 608.12 360.499 608.67C358.109 609.61 355.659 610.42 353.179 611.1C348.169 612.47 343.019 613.31 337.829 613.59C328.089 614.11 318.519 612.49 309.239 609.59C301.019 607.02 292.849 603.35 286.389 597.54C283.369 594.82 280.829 591.66 278.909 588.08C278.279 586.85 276.429 587.93 277.079 589.15Z" fill="#EDE3DF"/>
<path d="M286.16 597.9C277.44 601.01 267.98 601.1 258.89 599.9C248.14 598.47 237.66 595.26 227.55 591.42C206.27 583.34 186.13 572.21 166.77 560.33C161.56 557.13 156.39 553.74 152.1 549.34C148.06 545.19 145.12 540.22 143.66 534.6C142.25 529.17 142.2 523.38 143.61 517.94C144.31 515.23 145.38 512.62 146.81 510.21C148.3 507.69 150.21 505.1 153.11 504.15C159.41 502.09 165.28 507.1 170.16 510.3C175.19 513.61 180.81 515.86 186.64 517.3C198.59 520.26 211.02 520.15 223.22 521.27C247.58 523.51 271.09 532.59 290.6 547.37C293.07 549.24 295.47 551.22 297.8 553.27C298.83 554.18 300.35 552.67 299.32 551.75C280.39 535.11 256.73 523.98 231.8 520.16C219.17 518.23 206.31 518.59 193.69 516.54C187.45 515.53 181.23 513.89 175.58 510.98C170.04 508.13 165.29 503.24 159.05 501.91C156.17 501.3 153.06 501.46 150.48 502.99C147.98 504.47 146.2 506.97 144.77 509.44C141.97 514.3 140.55 519.9 140.45 525.49C140.35 531.17 141.62 536.88 144.15 541.97C146.89 547.47 151.23 551.94 156.05 555.67C160.79 559.34 165.98 562.39 171.12 565.46C176.05 568.4 181.01 571.27 186.03 574.05C196.54 579.87 207.27 585.31 218.33 590C228.89 594.48 239.78 598.38 251.03 600.71C260.67 602.71 270.77 603.63 280.5 601.69C282.62 601.27 284.7 600.69 286.74 599.97C288.02 599.51 287.47 597.44 286.16 597.9Z" fill="#EDE3DF"/>
<path d="M262.769 601.7C239.919 620.01 208.779 621.54 180.989 617.33C165.389 614.97 150.009 611.14 134.709 607.33C119.679 603.59 104.659 599.42 90.3695 593.38C77.0995 587.78 65.4295 578.65 55.0595 568.78C52.5495 566.39 50.1095 563.93 47.7195 561.42C45.3595 558.92 42.7295 556.4 40.7995 553.55C39.3495 551.41 38.0895 547.38 41.0095 545.74C42.2695 545.03 43.3395 545.61 44.5495 546.04C45.5195 546.39 46.5095 546.69 47.4995 546.98C57.3595 549.85 67.7895 551.47 78.0195 552.2C81.5595 552.45 85.0295 552.46 88.5495 552.07C91.4895 551.75 94.4495 551.57 97.3995 551.43C106.929 550.97 116.499 550.99 126.019 551.62C135.739 552.27 145.789 553.4 154.959 556.86C156.769 557.54 158.529 558.36 160.209 559.33C161.399 560.02 162.489 558.17 161.289 557.48C153.099 552.72 143.109 551.2 133.839 550.16C123.569 549.02 113.189 548.79 102.859 549.07C99.0795 549.17 95.2995 549.35 91.5295 549.64C88.6595 549.87 85.8295 550.28 82.9395 550.25C77.8195 550.2 72.6895 549.62 67.6295 548.89C62.1795 548.1 56.7395 547.11 51.3895 545.78C49.2795 545.25 47.1795 544.68 45.1295 543.95C44.0295 543.56 43.0395 543.09 41.8295 543.24C40.3795 543.42 39.0995 544.23 38.2595 545.42C34.1895 551.2 41.1895 557.5 44.7695 561.37C54.7495 572.14 65.9095 582.16 78.5495 589.71C84.9795 593.55 91.8495 596.41 98.8695 598.97C106.449 601.73 114.179 604.08 121.959 606.21C137.619 610.49 153.499 614.36 169.429 617.46C184.869 620.47 200.709 622.4 216.439 621.01C230.249 619.79 244.019 616.13 255.979 608.99C258.889 607.26 261.659 605.31 264.299 603.19C265.359 602.35 263.839 600.85 262.769 601.7Z" fill="#EDE3DF"/>
<path d="M147.219 507.12C136.029 501.05 125.929 493.11 117.499 483.56C113.259 478.75 109.099 473.78 106.229 468C103.309 462.13 101.839 455.65 100.899 449.19C99.9993 442.99 99.7693 436.31 102.659 430.56C102.819 430.24 102.989 429.94 103.159 429.62C103.619 428.76 103.329 429.33 103.319 429.32C103.299 429.26 103.099 429.64 103.229 429.4C103.109 429.63 103.019 429.34 103.149 429.42C103.149 429.42 103.499 429.51 103.179 429.41C103.369 429.46 103.549 429.51 103.729 429.58C104.499 429.88 105.629 430.7 106.429 431.31C109.379 433.54 112.079 436.12 114.779 438.63C118.319 441.92 121.819 445.25 125.389 448.51C131.209 453.82 137.239 458.74 143.749 463.17C149.459 467.05 155.229 470.84 161.009 474.62C175.289 483.96 189.639 493.19 204.029 502.37C209.229 505.69 214.429 509 219.649 512.28C222.199 513.88 224.779 515.45 227.309 517.1C229.709 518.67 232.189 520.26 234.249 522.27C234.369 522.38 234.679 522.74 234.399 522.42C234.429 522.45 234.449 522.49 234.469 522.53C235.049 523.78 236.889 522.69 236.319 521.45C235.859 520.46 234.539 519.63 233.729 519C230.409 516.42 226.809 514.21 223.239 511.99C218.539 509.07 213.869 506.09 209.199 503.12C194.559 493.8 179.969 484.42 165.429 474.95C159.159 470.86 152.889 466.75 146.669 462.57C140.349 458.31 134.389 453.75 128.709 448.64C121.899 442.52 115.539 435.78 108.349 430.12C106.969 429.03 104.619 426.85 102.649 427.34C102.189 427.45 101.869 427.71 101.589 428.08C100.799 429.11 100.299 430.48 99.8393 431.68C98.7293 434.6 98.2393 437.74 98.1493 440.86C97.9693 447.22 99.1993 453.88 100.909 459.99C102.729 466.48 105.749 472.35 109.819 477.7C117.669 488.01 127.149 497 137.989 504.12C140.629 505.86 143.349 507.47 146.119 508.98C147.349 509.63 148.429 507.78 147.219 507.12Z" fill="#EDE3DF"/>
<path d="M128.84 448.95C117.43 437.24 113.6 419.17 118.93 403.76C119.59 401.84 120.4 399.98 121.35 398.19C121.82 397.31 122.29 396.11 123.45 396.12C124.73 396.13 125.63 397.2 126.15 398.25C127.14 400.28 127.52 402.65 128.3 404.77C129.06 406.85 129.95 408.88 130.94 410.85C135.08 419.07 141.12 426.28 148.13 432.22C156.45 439.27 166.05 444.6 176.06 448.86C177.31 449.39 178.41 447.55 177.14 447.01C158.63 439.13 140.85 427.04 132.08 408.29C131.02 406.02 130.12 403.67 129.39 401.27C128.75 399.18 128.31 396.76 126.59 395.24C125.18 393.99 122.98 393.47 121.35 394.6C119.72 395.73 118.85 398.29 118.09 400.05C114.71 407.88 113.72 416.55 114.94 424.97C116.31 434.5 120.61 443.55 127.34 450.45C128.29 451.45 129.81 449.94 128.84 448.95Z" fill="#EDE3DF"/>
<path d="M274.92 534.57C259.21 525.41 245.78 512.56 235.74 497.41C230.74 489.87 226.56 481.78 223.38 473.31C221.8 469.09 220.45 464.79 219.36 460.42C218.08 455.29 216.98 450 216.91 444.69C216.78 434.18 221.95 424.8 227.72 416.36C230.54 412.24 233.4 408.06 236.66 404.27C239.92 400.48 243.79 397.32 248.69 395.98C253.73 394.6 259.11 394.96 264.21 395.8C269.62 396.68 274.96 398.02 280.17 399.74C290.36 403.1 300.52 407.89 308.63 415.02C324.16 428.66 331.54 449.07 337.68 468.23C338.44 470.62 339.18 473.01 339.9 475.41C340.3 476.73 342.36 476.17 341.97 474.84C338.85 464.43 335.39 454.09 331.07 444.11C327 434.71 321.87 425.7 314.89 418.14C307.45 410.07 298.02 404.49 287.94 400.34C282.63 398.15 277.14 396.39 271.55 395.09C266.28 393.86 260.82 392.84 255.39 392.94C250.25 393.04 245.17 394.3 240.94 397.33C236.9 400.23 233.84 404.18 230.93 408.16C224.82 416.53 218.4 425.3 215.84 435.51C213.29 445.69 215.78 456.48 218.74 466.32C221.45 475.34 225.24 484.04 229.96 492.19C239.34 508.38 252.4 522.45 268 532.81C269.9 534.07 271.85 535.28 273.82 536.43C275.03 537.11 276.11 535.26 274.92 534.57Z" fill="#EDE3DF"/>
<path d="M339.62 522.64C333.93 501.45 339.95 479.34 347.86 459.55C352.1 448.94 357 438.62 361.94 428.32C364.46 423.07 366.99 417.82 369.52 412.56C371.78 407.86 373.83 402.9 377.6 399.18C385.01 391.88 396.01 390.1 405.96 391.62C411.05 392.4 416.29 393.78 420.85 396.23C425.4 398.68 428.73 402.42 431.37 406.8C436.99 416.09 440.46 426.63 442.37 437.28C443.38 442.91 443.98 448.6 444.44 454.3C444.89 459.98 445.26 465.69 444.85 471.38C444.45 476.91 443.12 482.22 441.06 487.36C439.02 492.44 436.43 497.28 433.94 502.14C431.25 507.38 428.57 512.63 425.88 517.87C423.56 522.4 421.34 527.01 418.51 531.25C417.15 533.29 415.66 535.21 414.07 537.07C413.18 538.11 414.69 539.64 415.59 538.59C422.75 530.23 427.18 520.03 432.16 510.31C434.83 505.1 437.58 499.91 440.13 494.64C442.52 489.72 444.68 484.62 445.88 479.26C447.16 473.52 447.32 467.6 447.07 461.75C446.82 455.85 446.3 449.93 445.56 444.07C444.11 432.68 441.32 421.61 436.24 411.27C434 406.71 431.42 402.16 427.75 398.59C424.05 395 419.32 392.81 414.44 391.34C404.25 388.27 392.83 387.67 383.13 392.62C378.82 394.81 375.1 398.05 372.49 402.13C370.96 404.52 369.77 407.12 368.54 409.68C367.25 412.35 365.97 415.03 364.68 417.7C359.49 428.49 354.21 439.24 349.45 450.23C340.66 470.5 332.83 492.77 335.95 515.2C336.32 517.89 336.87 520.55 337.58 523.18C337.91 524.55 339.98 523.98 339.62 522.64Z" fill="#EDE3DF"/>
<path d="M285.82 398.75C284.92 393.78 285.62 388.32 286.73 383.42C287.77 378.84 289.27 374.34 291.21 370.06C293.3 365.44 295.89 360.96 299.21 357.11C302.14 353.71 305.87 350.38 310.11 348.83C315.73 346.78 322.62 348.79 327.99 350.71C337.07 353.96 345.49 359.17 353.01 365.15C363.67 373.63 372.76 384 379.88 395.6C380.6 396.77 382.46 395.7 381.73 394.52C375.08 383.7 366.76 373.91 357.05 365.72C349.18 359.08 340.4 353.34 330.82 349.51C324.74 347.08 317.34 344.81 310.75 346.41C306.64 347.41 302.88 350.31 299.91 353.22C296.16 356.9 293.19 361.34 290.79 366C286.4 374.53 283.57 384.03 283.33 393.65C283.28 395.56 283.39 397.45 283.73 399.34C284 400.67 286.06 400.1 285.82 398.75Z" fill="#EDE3DF"/>
<path d="M309.329 349.15C313.499 344.63 318.939 340.45 324.939 338.76C331.189 337 337.959 339.34 343.339 342.55C354.289 349.07 361.429 360.46 367.879 371.1C371.719 377.42 375.019 384.07 377.299 391.11C377.719 392.42 379.789 391.86 379.369 390.54C377.239 383.97 374.259 377.71 370.769 371.75C367.269 365.77 363.469 359.85 359.219 354.38C355.239 349.26 350.639 344.57 345.119 341.12C339.719 337.75 332.989 335.24 326.539 336.22C322.819 336.79 319.319 338.57 316.179 340.59C313.099 342.57 310.289 344.95 307.809 347.64C306.879 348.65 308.389 350.16 309.329 349.15Z" fill="#EDE3DF"/>
<path d="M377.949 386.02C379.269 377.84 380.069 369.58 380.569 361.31C380.819 357.22 380.999 353.12 381.149 349.03C381.229 346.9 381.299 344.77 381.359 342.64C381.419 340.79 381.589 338.9 381.489 337.05C381.339 334.31 380.329 331.68 379.669 329.03C379.179 327.06 378.389 324.01 380.159 322.44C381.519 321.23 383.649 320.75 385.369 320.39C388.069 319.82 390.889 319.71 393.629 319.99C398.669 320.49 402.919 322.67 406.599 326.07C410.199 329.4 413.319 333.25 416.139 337.25C423.799 348.14 429.449 360.58 432.349 373.58C433.679 379.56 433.459 385.74 432.749 391.8C432.269 395.93 431.539 400.04 430.569 404.09C430.519 404.3 430.469 404.51 430.409 404.72C430.059 406.06 432.129 406.63 432.479 405.29C433.279 402.19 433.859 399.01 434.349 395.84C435.289 389.71 435.889 383.38 435.149 377.19C434.309 370.15 431.899 363.14 429.189 356.62C426.619 350.43 423.499 344.47 419.829 338.87C416.849 334.33 413.529 329.95 409.709 326.09C406.349 322.69 402.619 319.86 397.919 318.61C392.719 317.23 386.599 317.29 381.549 319.29C379.749 320 378.099 320.97 377.379 322.87C376.439 325.37 377.249 328.29 377.919 330.76C378.299 332.16 378.729 333.56 379.039 334.98C379.389 336.57 379.359 338.07 379.309 339.7C379.179 344.04 379.049 348.39 378.869 352.73C378.499 361.49 377.939 370.24 376.829 378.94C376.549 381.12 376.239 383.29 375.889 385.46C375.669 386.8 377.729 387.38 377.949 386.02Z" fill="#EDE3DF"/>
<path d="M369.12 366.7C365.11 351.68 361.11 336.66 357.1 321.64C355.6 316.02 352.92 307.05 359.41 303.37C362.15 301.82 365.57 302.12 368.51 302.83C371.53 303.55 374.46 304.7 377.24 306.06C383.7 309.22 389.39 313.75 393.95 319.3C394.83 320.37 396.33 318.84 395.47 317.78C391.19 312.57 385.89 308.21 379.94 305.03C376.97 303.44 373.82 302.12 370.59 301.16C367.52 300.25 364.16 299.72 361.01 300.47C354 302.13 352.4 309.61 353.48 315.81C354.18 319.83 355.45 323.78 356.5 327.72C357.57 331.71 358.63 335.71 359.7 339.7C362.15 348.89 364.6 358.08 367.05 367.26C367.41 368.6 369.48 368.04 369.12 366.7Z" fill="#EDE3DF"/>
<path d="M356.29 304.17C354.42 301.11 352.4 297.71 352.57 293.99C352.7 291.1 354.3 288.16 357.29 287.48C360.22 286.82 363.71 287.58 366.61 288.14C369.42 288.69 372.19 289.46 374.88 290.43C385.73 294.36 395.41 301.67 402.22 310.98C406.13 316.32 409.09 322.28 410.88 328.65C411.25 329.98 413.32 329.41 412.95 328.08C409.5 315.78 401.79 304.98 391.68 297.25C386.62 293.38 380.97 290.3 374.95 288.19C371.97 287.14 368.89 286.34 365.77 285.82C362.6 285.29 358.81 284.54 355.72 285.72C352.51 286.95 350.78 290.19 350.46 293.47C350.05 297.74 352.3 301.74 354.44 305.25C355.16 306.43 357.01 305.35 356.29 304.17Z" fill="#EDE3DF"/>
<path d="M231.1 411.26C231.31 404.64 231.92 398.02 233.09 391.5C233.97 386.61 235.26 381.68 237.66 377.31C240.13 372.81 243.87 369.11 248.85 367.54C254.79 365.67 261.11 366.64 266.91 368.51C273.83 370.73 280.5 373.84 287.21 376.62C288.48 377.15 289.04 375.07 287.78 374.55C281.35 371.89 274.96 368.96 268.36 366.73C262.39 364.72 255.94 363.58 249.71 365.08C238.6 367.75 233.58 378.55 231.43 388.8C229.89 396.16 229.19 403.76 228.95 411.27C228.91 412.64 231.05 412.64 231.1 411.26Z" fill="#EDE3DF"/>
<path d="M215.78 506.74C207.41 499.49 200.86 490.52 195.25 481.03C192.46 476.31 189.89 471.46 187.41 466.57C184.68 461.21 182 455.8 179.78 450.2C175.61 439.68 172.99 428.17 175.1 416.87C176.1 411.54 178.12 406.46 181.33 402.07C182.9 399.92 184.75 397.97 186.78 396.26C188.79 394.57 191.13 392.82 193.64 391.96C196.92 390.83 199.62 392.44 202.01 394.59C204.51 396.84 206.88 399.23 209.31 401.55C214.6 406.61 219.9 411.68 225.19 416.74C226.19 417.69 227.7 416.18 226.71 415.22C221.78 410.5 216.85 405.78 211.91 401.06C209.41 398.67 206.92 396.26 204.41 393.88C202.58 392.15 200.57 390.38 198.09 389.68C192.83 388.18 187.33 392.71 183.77 396.08C179.75 399.89 176.72 404.62 174.81 409.81C170.73 420.89 171.9 433.23 175.4 444.29C177.28 450.22 179.79 455.94 182.51 461.53C185.12 466.91 187.85 472.24 190.75 477.46C197.03 488.79 204.41 499.71 214.26 508.25C215.31 509.15 216.83 507.65 215.78 506.74Z" fill="#EDE3DF"/>
<path d="M167.259 442.12C160.489 427.63 156.069 412.15 155.639 396.09C155.429 388.14 155.889 379.72 159.699 372.56C163.179 366.02 169.009 361.5 176.469 360.65C180.999 360.13 185.689 360.59 190.169 361.34C194.839 362.12 199.419 363.39 203.849 365.08C205.139 365.57 205.699 363.5 204.419 363.01C196.399 359.95 187.519 358.02 178.889 358.33C174.869 358.47 170.839 359.3 167.329 361.32C164.289 363.07 161.749 365.57 159.729 368.42C155.029 375.05 153.649 383.34 153.469 391.3C153.289 399.72 154.179 408.17 155.999 416.39C158.059 425.67 161.379 434.6 165.399 443.2C165.989 444.45 167.839 443.37 167.259 442.12Z" fill="#EDE3DF"/>
<path d="M176.149 409.76C174.799 401.3 175.589 392.52 178.499 384.46C179.799 380.85 181.989 376.87 186.039 375.92C190.069 374.97 193.539 378.23 195.529 381.35C197.989 385.2 199.649 389.62 201.549 393.76C202.119 395.01 203.969 393.92 203.399 392.68C201.479 388.48 199.809 383.99 197.279 380.11C195.069 376.72 191.569 373.53 187.259 373.62C183.019 373.72 179.709 376.92 177.879 380.49C175.739 384.64 174.579 389.44 173.929 394.04C173.159 399.46 173.219 404.92 174.089 410.33C174.299 411.69 176.369 411.11 176.149 409.76Z" fill="#EDE3DF"/>
<path d="M211.459 400.95C210.309 394.25 211.269 386.4 217.029 381.98C218.349 380.97 219.949 380.08 221.649 380.02C223.319 379.96 224.949 380.66 226.259 381.65C228.709 383.49 230.119 386.24 231.189 389.03C231.679 390.31 233.749 389.75 233.259 388.46C231.369 383.5 227.579 377.56 221.479 377.89C215.449 378.21 211.029 384.49 209.619 389.81C208.609 393.64 208.729 397.64 209.399 401.52C209.629 402.87 211.689 402.3 211.459 400.95Z" fill="#EDE3DF"/>
<path d="M199.05 383.38C199.19 380.55 199.68 377.76 200.54 375.05C201.27 372.73 202.28 370.39 204.03 368.65C205.75 366.94 208.17 365.97 210.57 366.65C213.16 367.38 215.64 369.12 217.78 370.72C218.89 371.55 219.95 369.69 218.86 368.87C216.43 367.05 213.47 364.98 210.42 364.41C207.71 363.91 205.03 364.91 202.98 366.69C200.86 368.53 199.58 371.18 198.69 373.8C197.64 376.89 197.07 380.13 196.9 383.38C196.84 384.76 198.98 384.76 199.05 383.38Z" fill="#EDE3DF"/>
<path d="M219.919 378.22C219.519 374.29 220.229 370.42 220.939 366.57C221.589 363 222.389 359.48 224.389 356.4C226.189 353.62 228.689 351.35 231.229 349.26C233.759 347.18 236.349 345.08 239.149 343.37C242.409 341.37 245.849 340.46 249.669 340.67C253.019 340.85 256.369 341.62 259.579 342.58C265.359 344.31 270.829 347.02 275.749 350.51C281.429 354.54 286.329 359.65 290.099 365.5C290.839 366.66 292.699 365.58 291.949 364.42C284.869 353.43 274.019 345.08 261.609 340.97C254.919 338.76 247.169 337.12 240.509 340.2C237.259 341.7 234.449 344.01 231.649 346.2C228.859 348.39 226.099 350.67 223.889 353.46C221.319 356.7 219.979 360.41 219.169 364.43C218.269 368.93 217.309 373.62 217.769 378.23C217.909 379.58 220.059 379.59 219.919 378.22Z" fill="#EDE3DF"/>
<path d="M233.699 345.95C234.709 341.01 236.269 336.14 239.079 331.92C241.599 328.13 245.109 325.08 249.029 322.81C257.219 318.07 267.259 316.51 276.549 318.16C282.199 319.16 287.549 321.29 292.479 324.2C293.669 324.9 294.749 323.05 293.559 322.35C284.389 316.94 273.819 314.36 263.199 315.84C253.759 317.15 244.359 321.49 238.439 329.16C234.789 333.88 232.799 339.6 231.619 345.4C231.359 346.73 233.429 347.3 233.699 345.95Z" fill="#EDE3DF"/>
<path d="M288.61 358.89C289.23 349.34 290.65 339.85 292.9 330.55C293.97 326.1 295.15 321.61 296.71 317.31C298.15 313.36 300.34 309.82 304.28 308C312.05 304.42 321.56 308.19 328.71 311.68C335.54 315.01 341.79 319.48 347.18 324.85C353.24 330.89 358.14 338.02 361.57 345.86C362.12 347.12 363.97 346.03 363.42 344.78C357 330.12 345.36 317.84 331.14 310.51C327.44 308.6 323.54 306.98 319.54 305.82C315.12 304.53 310.35 303.92 305.85 305.17C301.86 306.28 298.63 308.8 296.58 312.41C294.33 316.37 293.2 321.02 292.01 325.38C289.04 336.33 287.2 347.58 286.47 358.9C286.38 360.27 288.52 360.26 288.61 358.89Z" fill="#EDE3DF"/>
<path d="M312.96 306.85C320.25 306.71 327.54 307.26 334.71 308.58C338.16 309.21 341.58 310 344.94 310.98C348.03 311.88 351.08 313.06 353.53 315.21C354.56 316.12 356.08 314.61 355.05 313.69C352.63 311.57 349.74 310.24 346.69 309.27C343.12 308.13 339.43 307.29 335.74 306.59C328.23 305.17 320.59 304.54 312.95 304.69C311.58 304.74 311.57 306.88 312.96 306.85Z" fill="#EDE3DF"/>
<path d="M259.1 520.09C243.67 505.07 232.14 486.17 225.77 465.6C224 459.89 222.64 454.05 221.69 448.15C221.58 447.47 220.55 447.76 220.66 448.43C224.13 469.83 233.06 490.24 246.32 507.37C250.01 512.14 254.03 516.63 258.35 520.84C258.83 521.33 259.59 520.58 259.1 520.09Z" fill="#EDE3DF"/>
<path d="M237.32 480.22C233.39 472.01 230.46 463.34 228.63 454.43C227.69 449.85 227.039 445.21 226.679 440.55C226.389 436.68 226.27 432.75 226.89 428.9C227.56 424.69 229.12 420.66 232.23 417.66C232.73 417.18 231.97 416.42 231.47 416.9C225.87 422.32 225.1 430.61 225.45 437.98C225.9 447.4 227.63 456.78 230.46 465.77C232.08 470.9 234.07 475.91 236.39 480.76C236.7 481.38 237.62 480.84 237.32 480.22Z" fill="#EDE3DF"/>
<path d="M221.079 441.86C220.569 436.49 220.029 430.51 222.619 425.55C224.599 421.76 230.209 418.6 229.049 413.72C228.889 413.05 227.859 413.33 228.019 414C228.659 416.69 226.579 418.87 224.929 420.72C223.339 422.5 221.899 424.27 221.009 426.52C219.089 431.36 219.529 436.79 220.009 441.85C220.069 442.54 221.139 442.55 221.079 441.86Z" fill="#EDE3DF"/>
<path d="M303.82 509.98C290.74 501.34 279.91 489.44 272.47 475.65C270.36 471.73 268.53 467.66 266.99 463.48C266.75 462.84 265.72 463.12 265.96 463.76C271.46 478.7 280.68 492.2 292.62 502.74C295.98 505.71 299.54 508.43 303.28 510.9C303.86 511.29 304.39 510.36 303.82 509.98Z" fill="#EDE3DF"/>
<path d="M281.97 500.87C275.24 494.43 269.8 486.77 265.93 478.3C265.64 477.67 264.72 478.22 265 478.84C268.91 487.39 274.42 495.13 281.21 501.63C281.71 502.11 282.47 501.35 281.97 500.87Z" fill="#EDE3DF"/>
<path d="M260.079 463.46C257.089 455.32 254.519 447.03 252.399 438.62C252.229 437.95 251.199 438.23 251.369 438.9C253.489 447.31 256.059 455.6 259.049 463.74C259.279 464.39 260.319 464.11 260.079 463.46Z" fill="#EDE3DF"/>
<path d="M247.629 471.23C245.859 464.89 244.079 458.55 242.309 452.21C242.119 451.55 241.089 451.83 241.279 452.49C243.049 458.83 244.829 465.17 246.599 471.51C246.779 472.18 247.819 471.9 247.629 471.23Z" fill="#EDE3DF"/>
<path d="M217.479 504.13C203.019 486.97 192.159 466.85 185.719 445.36C183.919 439.34 182.469 433.22 181.359 427.04C181.239 426.36 180.209 426.65 180.329 427.32C184.309 449.61 192.919 471.03 205.459 489.88C208.929 495.09 212.689 500.1 216.719 504.88C217.169 505.41 217.919 504.65 217.479 504.13Z" fill="#EDE3DF"/>
<path d="M183.91 448.74C177.55 433.67 176.97 416.45 182.22 400.97C182.44 400.32 181.41 400.03 181.19 400.69C175.84 416.46 176.52 433.95 182.99 449.28C183.25 449.91 184.18 449.37 183.91 448.74Z" fill="#EDE3DF"/>
<path d="M236.879 506.28C228.089 498.55 221.529 488.51 217.999 477.35C217.789 476.69 216.759 476.97 216.969 477.63C220.549 488.96 227.199 499.18 236.119 507.03C236.639 507.49 237.399 506.73 236.879 506.28Z" fill="#EDE3DF"/>
<path d="M224.119 503.48C216.229 496.77 211.329 487.5 206.819 478.36C201.889 468.39 196.889 458.33 193.869 447.58C192.159 441.48 191.159 435.2 191.249 428.85C191.259 428.16 190.189 428.16 190.179 428.85C190.019 440.19 193.329 451.13 197.709 461.48C199.939 466.75 202.439 471.89 204.959 477.02C207.259 481.7 209.569 486.38 212.289 490.83C215.329 495.8 218.899 500.45 223.349 504.23C223.879 504.68 224.649 503.93 224.119 503.48Z" fill="#EDE3DF"/>
<path d="M177.98 404.24C176.78 396.94 178.23 389.38 182 383.01C182.35 382.42 181.43 381.88 181.07 382.47C177.15 389.1 175.7 396.93 176.95 404.53C177.06 405.21 178.09 404.92 177.98 404.24Z" fill="#EDE3DF"/>
<path d="M179.569 396.97C179.549 390.04 181.009 383.17 183.879 376.86C184.159 376.24 183.239 375.69 182.949 376.32C179.999 382.81 178.469 389.84 178.499 396.97C178.499 397.66 179.579 397.66 179.569 396.97Z" fill="#EDE3DF"/>
<path d="M182.56 399.17C181.77 394.14 182.32 388.98 184.08 384.21C184.32 383.56 183.28 383.28 183.05 383.93C181.22 388.89 180.71 394.24 181.53 399.46C181.63 400.13 182.67 399.84 182.56 399.17Z" fill="#EDE3DF"/>
<path d="M187.189 391.13C186.989 389.45 186.789 387.77 186.579 386.08C186.549 385.79 186.359 385.54 186.039 385.54C185.779 385.54 185.469 385.79 185.499 386.08C185.699 387.76 185.899 389.44 186.109 391.13C186.139 391.42 186.329 391.67 186.649 391.67C186.919 391.66 187.229 391.42 187.189 391.13Z" fill="#EDE3DF"/>
<path d="M173.23 444.29C164.46 432.93 158.97 419.23 157.52 404.96C157.45 404.28 156.38 404.27 156.45 404.96C157.92 419.43 163.42 433.32 172.31 444.83C172.72 445.37 173.65 444.84 173.23 444.29Z" fill="#EDE3DF"/>
<path d="M171.25 435.38C162.56 417.86 153.93 398.29 158.62 378.33C158.78 377.66 157.74 377.37 157.59 378.05C153.94 393.56 158.28 409.36 164.5 423.6C166.32 427.76 168.31 431.85 170.33 435.92C170.64 436.54 171.56 436 171.25 435.38Z" fill="#EDE3DF"/>
<path d="M166.09 412.33C161.99 404.01 159.95 394.52 159.23 385.31C158.58 377.11 160.24 367.26 168.5 363.36C169.12 363.07 168.58 362.14 167.96 362.43C162.08 365.21 159 371.46 158.24 377.66C157.76 381.59 158.09 385.56 158.62 389.47C159.12 393.21 159.78 396.93 160.71 400.58C161.78 404.81 163.24 408.94 165.17 412.85C165.47 413.49 166.39 412.95 166.09 412.33Z" fill="#EDE3DF"/>
<path d="M360.31 288.47C367.49 290.88 373.93 295.18 378.93 300.86C379.39 301.38 380.14 300.62 379.69 300.1C374.56 294.27 367.95 289.9 360.59 287.43C359.94 287.22 359.66 288.25 360.31 288.47Z" fill="#EDE3DF"/>
<path d="M367.91 288.99C381.1 298.07 392.64 309.47 401.87 322.55C402.26 323.11 403.19 322.57 402.8 322.01C393.45 308.77 381.81 297.25 368.45 288.06C367.88 287.67 367.35 288.6 367.91 288.99Z" fill="#EDE3DF"/>
<path d="M374.779 291.53C384.959 298.54 393.699 307.51 400.439 317.87C400.809 318.45 401.739 317.91 401.369 317.33C394.519 306.81 385.659 297.72 375.319 290.6C374.749 290.21 374.219 291.14 374.779 291.53Z" fill="#EDE3DF"/>
<path d="M374.96 380.45C376.91 362.18 376.18 343.69 372.81 325.63C372.68 324.95 371.65 325.24 371.78 325.91C375.13 343.87 375.84 362.27 373.89 380.44C373.81 381.14 374.88 381.13 374.96 380.45Z" fill="#EDE3DF"/>
<path d="M372.969 368.46C373.669 351.63 372.109 334.74 368.359 318.32C368.209 317.65 367.169 317.93 367.329 318.6C371.069 334.93 372.609 351.71 371.909 368.46C371.869 369.15 372.939 369.15 372.969 368.46Z" fill="#EDE3DF"/>
<path d="M369.82 356.72C368.39 344.88 365.66 333.24 361.65 322C361.42 321.36 360.38 321.63 360.62 322.28C364.6 333.42 367.34 344.97 368.75 356.71C368.83 357.39 369.91 357.4 369.82 356.72Z" fill="#EDE3DF"/>
<path d="M370.509 369.16C367.949 353.04 364.039 337.15 358.829 321.69C358.609 321.04 357.579 321.32 357.799 321.97C363.009 337.44 366.919 353.32 369.479 369.44C369.589 370.13 370.619 369.84 370.509 369.16Z" fill="#EDE3DF"/>
<path d="M337.949 333.31C340.869 334.85 343.339 337.13 345.089 339.93C345.449 340.51 346.379 339.98 346.019 339.39C344.179 336.44 341.569 334 338.499 332.38C337.879 332.07 337.339 332.99 337.949 333.31Z" fill="#EDE3DF"/>
<path d="M337.709 329.75C346.099 335.33 352.939 343.01 357.529 351.98C357.839 352.59 358.769 352.05 358.459 351.44C353.789 342.31 346.799 334.5 338.249 328.82C337.679 328.45 337.139 329.37 337.709 329.75Z" fill="#EDE3DF"/>
<path d="M340.079 326.2C351.019 336.28 359.899 348.45 366.189 361.93C366.479 362.55 367.409 362.01 367.119 361.39C360.799 347.83 351.839 335.58 340.839 325.44C340.329 324.97 339.569 325.73 340.079 326.2Z" fill="#EDE3DF"/>
<path d="M338.609 321.61C349.879 331.05 358.909 342.97 364.939 356.37C365.219 357 366.149 356.45 365.869 355.83C359.799 342.35 350.699 330.34 339.369 320.85C338.839 320.41 338.079 321.17 338.609 321.61Z" fill="#EDE3DF"/>
<path d="M347.329 325.29C353.019 330.45 357.559 336.74 360.659 343.76C360.939 344.39 361.859 343.84 361.589 343.22C358.449 336.13 353.839 329.75 348.089 324.53C347.579 324.07 346.819 324.82 347.329 325.29Z" fill="#EDE3DF"/>
<path d="M338.579 314.02C347.519 319.4 354.709 327.35 359.199 336.77C359.499 337.39 360.419 336.85 360.129 336.23C355.569 326.65 348.209 318.56 339.119 313.09C338.519 312.74 337.989 313.66 338.579 314.02Z" fill="#EDE3DF"/>
<path d="M344.16 316.08C349.71 319.76 354.24 324.82 357.3 330.73C357.62 331.34 358.54 330.8 358.23 330.19C355.08 324.12 350.4 318.94 344.7 315.16C344.12 314.78 343.58 315.7 344.16 316.08Z" fill="#EDE3DF"/>
<path d="M347.569 315.41C350.909 317.51 353.679 320.42 355.629 323.85C355.969 324.45 356.899 323.91 356.559 323.31C354.519 319.72 351.599 316.69 348.109 314.49C347.529 314.12 346.989 315.05 347.569 315.41Z" fill="#EDE3DF"/>
<path d="M350.03 314.22C351.85 315.94 353.67 317.67 355.49 319.39C355.99 319.86 356.75 319.11 356.25 318.63C354.43 316.91 352.61 315.18 350.79 313.46C350.29 312.98 349.53 313.74 350.03 314.22Z" fill="#EDE3DF"/>
<path d="M382.809 393.21C383.509 389.79 384.219 386.37 384.919 382.95C385.059 382.28 384.029 381.99 383.889 382.67C383.189 386.09 382.479 389.51 381.779 392.93C381.629 393.6 382.669 393.88 382.809 393.21Z" fill="#EDE3DF"/>
<path d="M365.529 418.61C368.349 422.62 370.089 427.3 370.509 432.19C370.569 432.87 371.639 432.88 371.579 432.19C371.139 427.12 369.389 422.23 366.459 418.07C366.059 417.51 365.129 418.04 365.529 418.61Z" fill="#EDE3DF"/>
<path d="M369.05 416.21C371.9 424.15 374.23 432.26 376.03 440.51C376.18 441.18 377.21 440.9 377.06 440.23C375.26 431.99 372.92 423.88 370.08 415.93C369.85 415.28 368.82 415.56 369.05 416.21Z" fill="#EDE3DF"/>
<path d="M373.54 414.33C375.6 417.42 376.8 421 377 424.7C377.04 425.39 378.11 425.39 378.07 424.7C377.86 420.81 376.63 417.03 374.47 413.79C374.09 413.22 373.16 413.76 373.54 414.33Z" fill="#EDE3DF"/>
<path d="M289.77 530.69C276.52 520.8 264.69 509.02 254.77 495.8C251.99 492.09 249.36 488.27 246.88 484.35C246.51 483.77 245.58 484.31 245.95 484.89C254.87 498.98 265.78 511.78 278.31 522.78C281.83 525.87 285.48 528.81 289.23 531.61C289.78 532.03 290.31 531.1 289.77 530.69Z" fill="#EDE3DF"/>
<path d="M207.99 398.23C207.35 394.32 206.7 390.41 206.06 386.5C205.95 385.82 204.92 386.11 205.03 386.78C205.67 390.69 206.32 394.6 206.96 398.51C207.07 399.2 208.1 398.91 207.99 398.23Z" fill="#EDE3DF"/>
<path d="M208.06 386.3C207.6 382.92 207.15 379.55 206.69 376.17C206.6 375.49 205.57 375.78 205.66 376.45C206.12 379.83 206.57 383.2 207.03 386.58C207.12 387.27 208.15 386.98 208.06 386.3Z" fill="#EDE3DF"/>
<path d="M210.619 385.02C209.569 382.8 208.939 380.4 208.749 377.96C208.699 377.28 207.629 377.27 207.679 377.96C207.879 380.6 208.559 383.17 209.689 385.56C209.989 386.19 210.919 385.64 210.619 385.02Z" fill="#EDE3DF"/>
<path d="M203.359 387.79C201.939 382.15 201.669 376.28 202.589 370.53C202.699 369.86 201.669 369.56 201.559 370.25C200.609 376.19 200.869 382.24 202.329 388.08C202.499 388.74 203.529 388.46 203.359 387.79Z" fill="#EDE3DF"/>
<path d="M204.909 380.6C203.989 378.93 203.599 377.03 203.759 375.13C203.779 374.84 203.499 374.59 203.219 374.59C202.909 374.59 202.709 374.84 202.679 375.13C202.509 377.21 202.969 379.31 203.979 381.14C204.319 381.75 205.249 381.21 204.909 380.6Z" fill="#EDE3DF"/>
<path d="M101.479 444.2C103.269 457.19 109.769 469.34 119.579 478.05C120.089 478.51 120.849 477.75 120.339 477.29C110.649 468.69 104.279 456.75 102.509 443.91C102.419 443.24 101.389 443.53 101.479 444.2Z" fill="#EDE3DF"/>
<path d="M105.15 447.13C115.11 465.64 129.02 481.93 145.71 494.71C150.42 498.32 155.35 501.63 160.47 504.65C161.07 505 161.61 504.08 161.01 503.72C143.01 493.11 127.34 478.65 115.32 461.56C111.94 456.76 108.86 451.76 106.08 446.59C105.75 445.98 104.82 446.52 105.15 447.13Z" fill="#EDE3DF"/>
<path d="M127.89 467.09C137.64 478.46 148.96 488.43 161.47 496.67C162.05 497.05 162.59 496.12 162.01 495.74C149.57 487.55 138.34 477.64 128.64 466.33C128.2 465.81 127.45 466.57 127.89 467.09Z" fill="#EDE3DF"/>
<path d="M154.66 488.16C164.05 494.32 173.72 500.04 183.63 505.3C184.24 505.62 184.78 504.7 184.17 504.37C174.25 499.1 164.59 493.38 155.2 487.23C154.62 486.86 154.08 487.79 154.66 488.16Z" fill="#EDE3DF"/>
<path d="M162.589 489.59C171.459 494.37 180.339 499.15 189.209 503.93C189.819 504.26 190.359 503.33 189.749 503C180.879 498.22 171.999 493.44 163.129 488.66C162.519 488.33 161.979 489.26 162.589 489.59Z" fill="#EDE3DF"/>
<path d="M177.989 495.03C185.919 498.86 193.849 502.68 201.779 506.51C202.399 506.81 202.939 505.88 202.319 505.58C194.389 501.75 186.459 497.93 178.529 494.1C177.909 493.81 177.369 494.73 177.989 495.03Z" fill="#EDE3DF"/>
<path d="M175.49 488.27C188.73 494.99 201.96 501.71 215.2 508.43C215.81 508.74 216.36 507.82 215.74 507.5C202.5 500.78 189.27 494.06 176.03 487.34C175.42 487.03 174.88 487.95 175.49 488.27Z" fill="#EDE3DF"/>
<path d="M170.109 506.56C179.769 513.42 191.039 517.74 202.789 519.15C203.469 519.23 203.469 518.16 202.789 518.08C191.229 516.68 180.139 512.37 170.649 505.63C170.089 505.23 169.549 506.16 170.109 506.56Z" fill="#EDE3DF"/>
<path d="M186.969 510.09C197.549 514.44 208.489 517.83 219.669 520.24C220.339 520.38 220.629 519.35 219.949 519.21C208.769 516.8 197.829 513.41 187.249 509.06C186.619 508.79 186.339 509.83 186.969 510.09Z" fill="#EDE3DF"/>
<path d="M197.189 508.18C209.159 513.34 221.239 518.23 233.419 522.87C234.069 523.12 234.339 522.08 233.699 521.84C221.599 517.24 209.609 512.38 197.719 507.26C197.109 506.98 196.559 507.9 197.189 508.18Z" fill="#EDE3DF"/>
<path d="M203.49 506.49C213.96 511.99 224.42 517.49 234.89 522.99C235.5 523.31 236.04 522.39 235.43 522.06C224.96 516.56 214.5 511.06 204.03 505.56C203.42 505.25 202.88 506.17 203.49 506.49Z" fill="#EDE3DF"/>
<path d="M345.1 522.52C341.37 507.09 342.1 490.7 347.1 475.63C348.53 471.31 350.33 467.12 352.44 463.09C352.76 462.48 351.84 461.94 351.51 462.55C344.02 476.84 340.67 493.19 341.91 509.28C342.26 513.84 342.99 518.37 344.06 522.81C344.23 523.48 345.26 523.19 345.1 522.52Z" fill="#EDE3DF"/>
<path d="M351.07 483.16C354.9 473.12 358.73 463.08 362.57 453.05C362.82 452.41 361.78 452.13 361.54 452.77C357.71 462.81 353.88 472.85 350.04 482.88C349.79 483.52 350.82 483.8 351.07 483.16Z" fill="#EDE3DF"/>
<path d="M353.449 525.06C351.799 522.71 351.639 519.29 351.279 516.51C350.899 513.57 350.679 510.62 350.599 507.66C350.429 501.63 350.889 495.59 351.939 489.65C352.059 488.98 351.029 488.69 350.909 489.37C349.819 495.56 349.339 501.86 349.539 508.15C349.639 511.21 349.899 514.27 350.309 517.3C350.679 520.05 350.879 523.26 352.519 525.6C352.919 526.16 353.849 525.63 353.449 525.06Z" fill="#EDE3DF"/>
<path d="M359.579 519.34C359.219 514.44 358.849 509.55 358.489 504.65C358.119 499.69 357.619 494.71 357.819 489.73C358.209 480.06 362.319 471.33 366.499 462.78C366.799 462.16 365.879 461.62 365.569 462.24C361.459 470.65 357.369 479.27 356.789 488.76C356.479 493.81 356.979 498.88 357.349 503.92C357.729 509.06 358.109 514.2 358.489 519.34C358.549 520.02 359.629 520.03 359.579 519.34Z" fill="#EDE3DF"/>
<path d="M360.839 467.94C362.399 462.92 363.959 457.91 365.509 452.89C365.719 452.23 364.679 451.95 364.479 452.61C362.919 457.63 361.359 462.64 359.809 467.66C359.599 468.32 360.639 468.6 360.839 467.94Z" fill="#EDE3DF"/>
<path d="M364.73 448.26C365.35 445.91 365.97 443.56 366.59 441.21C366.77 440.54 365.73 440.26 365.56 440.93C364.94 443.28 364.32 445.63 363.7 447.98C363.52 448.64 364.56 448.93 364.73 448.26Z" fill="#EDE3DF"/>
<path d="M286.23 395.3C287 396.54 287.43 397.96 287.47 399.42C287.49 400.11 288.56 400.11 288.54 399.42C288.49 397.77 288.02 396.16 287.15 394.76C286.8 394.17 285.87 394.71 286.23 395.3Z" fill="#EDE3DF"/>
<path d="M286.1 387.88C288.32 392.92 290.53 397.96 292.75 403.01C293.03 403.64 293.95 403.1 293.68 402.47C291.46 397.43 289.25 392.39 287.03 387.34C286.75 386.71 285.83 387.26 286.1 387.88Z" fill="#EDE3DF"/>
<path d="M289.529 382.64C292.929 389.44 296.329 396.25 299.729 403.05C300.039 403.67 300.959 403.12 300.659 402.51C297.259 395.71 293.859 388.9 290.459 382.1C290.149 381.48 289.229 382.02 289.529 382.64Z" fill="#EDE3DF"/>
<path d="M299.11 392.13C302.94 400.01 306.91 407.81 311.03 415.54C311.35 416.15 312.28 415.61 311.96 415C307.84 407.27 303.87 399.47 300.04 391.59C299.74 390.96 298.81 391.51 299.11 392.13Z" fill="#EDE3DF"/>
<path d="M305.529 394.9C310.919 406.64 316.319 418.38 321.709 430.11C321.999 430.74 322.919 430.19 322.639 429.57C317.249 417.83 311.849 406.09 306.459 394.36C306.159 393.74 305.239 394.28 305.529 394.9Z" fill="#EDE3DF"/>
<path d="M314.059 397.4C323.879 417.13 331.649 437.86 337.189 459.19C338.759 465.22 340.139 471.3 341.359 477.41C341.489 478.09 342.529 477.8 342.389 477.13C338.099 455.5 331.569 434.33 322.919 414.04C320.449 408.24 317.799 402.51 314.979 396.86C314.679 396.24 313.759 396.79 314.059 397.4Z" fill="#EDE3DF"/>
<path d="M334.93 429.07C336.83 435.57 338.53 442.13 340.02 448.73C340.75 451.95 341.43 455.19 342.06 458.43C342.38 460.09 342.69 461.76 342.99 463.42C343.07 463.89 344.07 468.38 343.09 468.21C342.42 468.09 342.13 469.12 342.81 469.24C345.66 469.74 344.33 464.87 344.11 463.61C343.42 459.72 342.66 455.84 341.83 451.98C340.15 444.18 338.19 436.44 335.96 428.78C335.77 428.12 334.74 428.4 334.93 429.07Z" fill="#EDE3DF"/>
<path d="M329.73 416.13C330.96 417.5 331.85 419.15 332.33 420.93C332.51 421.6 333.54 421.31 333.36 420.65C332.84 418.69 331.84 416.88 330.49 415.37C330.03 414.86 329.27 415.62 329.73 416.13Z" fill="#EDE3DF"/>
<path d="M337.86 369.65C340.43 372.42 342.49 375.64 343.9 379.14C344.15 379.77 345.19 379.5 344.93 378.86C343.44 375.18 341.31 371.81 338.61 368.89C338.15 368.39 337.39 369.14 337.86 369.65Z" fill="#EDE3DF"/>
<path d="M343.269 369.83C353.519 382.93 360.049 398.81 361.989 415.32C362.069 416 363.139 416 363.059 415.32C361.079 398.49 354.469 382.42 344.029 369.07C343.609 368.53 342.849 369.29 343.269 369.83Z" fill="#EDE3DF"/>
<path d="M335.059 356.89C335.749 356.89 335.749 355.82 335.059 355.82C334.369 355.81 334.369 356.89 335.059 356.89Z" fill="#EDE3DF"/>
<path d="M338.94 353.3C338.04 353.85 336.43 352.07 335.4 351.99C334.6 351.93 334.04 352.24 333.75 352.99C333.68 353.16 333.76 353.39 333.89 353.51C343.44 362.45 351.45 372.92 357.59 384.47C357.91 385.08 358.84 384.54 358.52 383.93C352.34 372.3 344.26 361.75 334.65 352.75C334.7 352.92 334.74 353.1 334.79 353.27C335.14 352.37 337.14 354.07 337.52 354.25C338.21 354.58 338.83 354.63 339.49 354.22C340.07 353.87 339.53 352.94 338.94 353.3Z" fill="#EDE3DF"/>
<path d="M352.11 366.24C360.56 379.05 368.86 392.81 370.46 408.4C370.53 409.08 371.6 409.09 371.53 408.4C369.91 392.6 361.6 378.69 353.03 365.7C352.65 365.12 351.73 365.66 352.11 366.24Z" fill="#EDE3DF"/>
<path d="M362.449 377.36C367.199 385.35 371.199 393.76 374.399 402.48C374.639 403.12 375.669 402.84 375.429 402.2C372.199 393.39 368.169 384.89 363.369 376.82C363.019 376.22 362.099 376.76 362.449 377.36Z" fill="#EDE3DF"/>
<path d="M365.94 377.08C369.39 384.28 372.83 391.47 376.28 398.67C376.58 399.29 377.5 398.75 377.21 398.13C373.76 390.93 370.32 383.74 366.87 376.54C366.57 375.92 365.64 376.46 365.94 377.08Z" fill="#EDE3DF"/>
<path d="M375.3 389.77C376.14 391.68 376.98 393.6 377.82 395.51C377.94 395.77 378.32 395.84 378.55 395.7C378.82 395.54 378.86 395.23 378.74 394.97C377.9 393.06 377.06 391.14 376.22 389.23C376.1 388.97 375.72 388.9 375.49 389.04C375.22 389.2 375.18 389.5 375.3 389.77Z" fill="#EDE3DF"/>
<path d="M360.989 526.84C364.939 531.08 368.239 535.89 370.779 541.11C371.079 541.73 372.009 541.19 371.709 540.57C369.129 535.28 365.769 530.39 361.759 526.08C361.279 525.57 360.519 526.33 360.989 526.84Z" fill="#EDE3DF"/>
<path d="M367.54 529.66C372.68 535.61 376.94 542.26 380.22 549.4C380.51 550.03 381.43 549.48 381.15 548.86C377.84 541.63 373.51 534.91 368.31 528.9C367.85 528.38 367.09 529.14 367.54 529.66Z" fill="#EDE3DF"/>
<path d="M382.15 541.65C388.76 555.52 395.8 570.69 392.61 586.44C392.47 587.11 393.51 587.4 393.64 586.72C396.89 570.65 389.82 555.26 383.07 541.1C382.78 540.49 381.85 541.03 382.15 541.65Z" fill="#EDE3DF"/>
<path d="M297.959 578.56C295.469 573.05 294.43 566.99 294.89 560.97C294.94 560.28 293.869 560.29 293.819 560.97C293.349 567.19 294.469 573.42 297.039 579.1C297.319 579.73 298.239 579.18 297.959 578.56Z" fill="#EDE3DF"/>
<path d="M309.65 580.26C306.29 574.06 303.9 567.39 302.56 560.47C302.43 559.79 301.4 560.08 301.53 560.75C302.89 567.76 305.32 574.52 308.73 580.79C309.05 581.41 309.98 580.87 309.65 580.26Z" fill="#EDE3DF"/>
<path d="M327.759 527.49C332.289 538.46 337.609 549.08 343.689 559.27C344.039 559.86 344.969 559.32 344.619 558.73C338.589 548.62 333.299 538.08 328.799 527.21C328.529 526.57 327.489 526.85 327.759 527.49Z" fill="#EDE3DF"/>
<path d="M278.519 401.23C288.919 410.93 297.879 422.07 305.119 434.31C305.469 434.9 306.399 434.36 306.049 433.77C298.769 421.46 289.739 410.23 279.279 400.47C278.769 400 278.009 400.75 278.519 401.23Z" fill="#EDE3DF"/>
<path d="M290.729 409.64C307.629 427.59 321.129 448.69 330.289 471.58C332.849 477.97 335.059 484.49 336.929 491.11C337.109 491.76 338.129 491.48 337.949 490.83C331.199 466.99 319.949 444.48 304.929 424.78C300.719 419.26 296.229 413.96 291.469 408.9C291.009 408.4 290.269 409.14 290.729 409.64Z" fill="#EDE3DF"/>
<path d="M312.82 431.68C319.49 440.07 325.03 449.31 329.32 459.13C329.6 459.76 330.52 459.22 330.25 458.59C325.92 448.68 320.32 439.39 313.59 430.92C313.15 430.38 312.4 431.15 312.82 431.68Z" fill="#EDE3DF"/>
<path d="M298.939 437.19C306.329 446.62 312.229 457.16 316.419 468.38C316.659 469.02 317.699 468.74 317.449 468.1C313.189 456.69 307.199 446.02 299.689 436.44C299.279 435.89 298.519 436.65 298.939 437.19Z" fill="#EDE3DF"/>
<path d="M322.669 467.63C330.109 481.76 334.579 497.36 335.759 513.29C335.809 513.97 336.879 513.98 336.829 513.29C335.639 497.16 331.129 481.4 323.599 467.09C323.269 466.48 322.349 467.02 322.669 467.63Z" fill="#EDE3DF"/>
<path d="M291.2 448.45C302.98 466.31 313.24 485.16 321.83 504.75C324.33 510.45 326.67 516.21 328.88 522.02C329.12 522.66 330.16 522.38 329.91 521.74C322.23 501.56 312.85 482.03 301.85 463.45C298.74 458.19 295.49 453.01 292.12 447.91C291.74 447.34 290.82 447.87 291.2 448.45Z" fill="#EDE3DF"/>
<path d="M316.56 479.66C324.39 492.7 330.53 506.69 334.84 521.28C335.03 521.94 336.07 521.66 335.87 521C331.54 506.33 325.35 492.24 317.48 479.12C317.13 478.53 316.2 479.07 316.56 479.66Z" fill="#EDE3DF"/>
<path d="M223.7 506.29C229.94 513.14 237.1 519.11 244.96 524.02C245.55 524.39 246.09 523.46 245.5 523.09C237.71 518.23 230.63 512.32 224.45 505.53C223.99 505.02 223.23 505.78 223.7 506.29Z" fill="#EDE3DF"/>
<path d="M227.619 506.35C237.179 514.5 247.719 521.45 258.979 527.02C259.599 527.32 260.139 526.4 259.519 526.09C248.339 520.56 237.869 513.68 228.369 505.59C227.849 505.15 227.089 505.9 227.619 506.35Z" fill="#EDE3DF"/>
<path d="M238.78 509.66C244.08 514.01 249.65 518.03 255.45 521.69C256.04 522.06 256.57 521.13 255.99 520.76C250.26 517.15 244.77 513.19 239.54 508.89C239 508.47 238.24 509.22 238.78 509.66Z" fill="#EDE3DF"/>
<path d="M148.09 463.65C133.64 453.88 123.74 438.01 120.79 420.87C119.95 415.99 119.71 411.03 120.05 406.09C120.1 405.4 119.03 405.4 118.98 406.09C117.77 423.83 124.32 441.75 136.29 454.85C139.65 458.53 143.44 461.79 147.56 464.58C148.12 464.96 148.66 464.03 148.09 463.65Z" fill="#EDE3DF"/>
<path d="M123.839 420.34C125.499 428.48 128.669 436.24 133.189 443.22C133.559 443.8 134.489 443.26 134.119 442.68C129.649 435.78 126.519 428.12 124.879 420.06C124.729 419.38 123.699 419.67 123.839 420.34Z" fill="#EDE3DF"/>
<path d="M137.539 449.43C139.609 453.27 142.239 456.78 145.329 459.86C145.819 460.35 146.579 459.59 146.089 459.1C143.059 456.08 140.499 452.65 138.469 448.89C138.139 448.28 137.209 448.82 137.539 449.43Z" fill="#EDE3DF"/>
<path d="M128.54 424.75C133.49 434.99 139.33 444.92 146.27 453.95C149.54 458.21 153.14 462.19 157.17 465.74C161.52 469.56 166.15 473.07 170.69 476.66C176.09 480.94 181.5 485.23 186.9 489.51C187.43 489.93 188.2 489.18 187.66 488.75C178.39 481.4 168.93 474.24 159.86 466.63C151.25 459.41 144.6 450.5 138.7 441C135.32 435.57 132.25 429.95 129.46 424.19C129.16 423.59 128.24 424.13 128.54 424.75Z" fill="#EDE3DF"/>
<path d="M148.139 449.28C159.229 462.47 171.279 474.85 184.189 486.26C187.849 489.49 191.569 492.65 195.359 495.72C195.889 496.15 196.649 495.4 196.119 494.96C182.749 484.09 170.169 472.24 158.549 459.52C155.259 455.92 152.039 452.25 148.899 448.51C148.449 447.99 147.699 448.76 148.139 449.28Z" fill="#EDE3DF"/>
<path d="M152.24 446.03C164.79 458.81 177.21 471.73 189.48 484.78C189.95 485.28 190.71 484.52 190.24 484.02C177.97 470.97 165.56 458.05 153 445.27C152.52 444.78 151.76 445.54 152.24 446.03Z" fill="#EDE3DF"/>
<path d="M192.099 488.48C195.659 491.9 199.219 495.32 202.789 498.74C203.289 499.22 204.049 498.46 203.549 497.98C199.989 494.56 196.429 491.14 192.859 487.72C192.359 487.24 191.599 488 192.099 488.48Z" fill="#EDE3DF"/>
<path d="M163.889 446.69C170.919 454.39 177.559 462.43 183.779 470.79C184.189 471.34 185.119 470.8 184.709 470.25C178.429 461.82 171.739 453.7 164.649 445.94C164.179 445.42 163.419 446.18 163.889 446.69Z" fill="#EDE3DF"/>
<path d="M171.69 512.81C181.25 519.91 192.89 523.04 204.39 525.41C210.27 526.62 216.18 527.65 222.03 528.97C228.52 530.43 234.92 532.3 241.17 534.58C248.3 537.19 255.22 540.33 261.89 543.96C262.5 544.29 263.039 543.36 262.429 543.03C250.789 536.69 238.35 531.83 225.47 528.67C213.75 525.79 201.66 524.4 190.14 520.72C183.76 518.68 177.63 515.89 172.24 511.88C171.67 511.47 171.14 512.4 171.69 512.81Z" fill="#EDE3DF"/>
<path d="M221.919 525.91C242.769 528.93 262.699 537.63 279.119 550.83C283.739 554.54 288.059 558.61 292.069 562.98C292.539 563.49 293.289 562.73 292.829 562.22C278.559 546.65 260.099 535.07 239.919 528.85C234.129 527.07 228.199 525.74 222.199 524.87C221.529 524.78 221.239 525.82 221.919 525.91Z" fill="#EDE3DF"/>
<path d="M246.009 528.61C260.569 530.83 272.249 540.64 283.289 549.67C286.999 552.7 290.699 555.73 294.409 558.76C294.939 559.19 295.699 558.44 295.169 558C288.879 552.85 282.649 547.61 276.239 542.61C270.499 538.13 264.469 533.89 257.779 530.97C254.109 529.36 250.279 528.19 246.309 527.58C245.619 527.48 245.329 528.51 246.009 528.61Z" fill="#EDE3DF"/>
<path d="M280.17 543.74C285.8 547.5 291.21 551.57 296.38 555.94C296.9 556.38 297.67 555.63 297.14 555.18C291.9 550.75 286.42 546.62 280.72 542.81C280.14 542.43 279.6 543.36 280.17 543.74Z" fill="#EDE3DF"/>
<path d="M235.339 539.16C247.629 542.37 259.179 548.01 269.279 555.72C269.829 556.14 270.359 555.21 269.819 554.79C259.659 547.03 247.999 541.35 235.629 538.13C234.959 537.96 234.669 538.99 235.339 539.16Z" fill="#EDE3DF"/>
<path d="M277.53 561.91C277.62 561.94 277.71 561.97 277.8 562C277.84 562.02 277.89 562.03 277.93 562.05C277.86 562.02 277.91 562.04 277.95 562.06C278.11 562.13 278.27 562.22 278.43 562.31C278.58 562.4 278.73 562.51 278.88 562.61C278.93 562.65 278.82 562.56 278.9 562.63C278.94 562.66 278.97 562.69 279.01 562.72C279.08 562.78 279.15 562.84 279.22 562.91C279.34 563.03 279.46 563.15 279.58 563.28C279.61 563.32 279.64 563.35 279.67 563.39C279.68 563.4 279.77 563.52 279.7 563.43C279.76 563.51 279.81 563.58 279.86 563.66C279.96 563.8 280.04 563.95 280.12 564.1C280.16 564.18 280.2 564.27 280.24 564.35C280.25 564.37 280.3 564.5 280.26 564.39C280.28 564.43 280.29 564.48 280.31 564.52C280.41 564.78 280.68 564.99 280.97 564.89C281.23 564.81 281.45 564.51 281.34 564.23C280.74 562.64 279.44 561.39 277.81 560.87C277.54 560.79 277.21 560.97 277.15 561.24C277.09 561.54 277.24 561.82 277.53 561.91Z" fill="#EDE3DF"/>
<path d="M173.21 523.56C180.28 530.74 189 536.13 198.57 539.27C199.23 539.49 199.51 538.45 198.85 538.24C189.45 535.16 180.9 529.85 173.96 522.81C173.49 522.31 172.73 523.07 173.21 523.56Z" fill="#EDE3DF"/>
<path d="M280.839 595.52C249.579 598 219.999 584.72 194.069 568.55C186.709 563.96 179.529 559.11 172.379 554.21C171.809 553.82 171.269 554.75 171.839 555.14C184.719 563.97 197.739 572.66 211.609 579.88C225.289 587 239.849 592.65 255.089 595.3C263.589 596.77 272.239 597.29 280.839 596.61C281.519 596.53 281.529 595.46 280.839 595.52Z" fill="#EDE3DF"/>
<path d="M158.089 550.75C175.349 566.77 196.099 578.28 217.169 588.49C223.169 591.4 229.219 594.22 235.269 597.03C235.889 597.32 236.439 596.4 235.809 596.1C214.709 586.29 193.429 576.37 174.469 562.73C169.009 558.8 163.769 554.56 158.839 549.98C158.349 549.52 157.589 550.28 158.089 550.75Z" fill="#EDE3DF"/>
<path d="M190.49 560.2C200.22 568.61 211.47 575.12 223.61 579.35C224.26 579.58 224.54 578.54 223.89 578.32C211.93 574.15 200.83 567.73 191.25 559.44C190.73 558.99 189.97 559.75 190.49 560.2Z" fill="#EDE3DF"/>
<path d="M154.019 544.99C145.809 540.8 140.919 531.23 142.439 522.12C142.549 521.45 141.519 521.16 141.409 521.84C139.809 531.41 144.819 541.5 153.479 545.92C154.099 546.23 154.639 545.3 154.019 544.99Z" fill="#EDE3DF"/>
<path d="M221.149 548.64C233.869 555.49 247.109 561.35 260.739 566.16C261.389 566.39 261.669 565.36 261.019 565.13C247.479 560.34 234.329 554.52 221.689 547.71C221.089 547.38 220.549 548.31 221.149 548.64Z" fill="#EDE3DF"/>
<path d="M215.359 405.29C213.229 400.03 212.169 394.41 212.239 388.74C212.249 388.05 211.179 388.05 211.169 388.74C211.099 394.5 212.169 400.23 214.329 405.58C214.579 406.21 215.619 405.93 215.359 405.29Z" fill="#EDE3DF"/>
<path d="M219.74 402.58C217.23 398.28 215.91 393.39 215.91 388.4C215.91 387.71 214.84 387.71 214.84 388.4C214.84 393.57 216.21 398.66 218.82 403.12C219.16 403.72 220.09 403.18 219.74 402.58Z" fill="#EDE3DF"/>
<path d="M224.47 413.59C223.05 410.9 221.63 408.2 220.21 405.51C219.89 404.9 218.96 405.44 219.28 406.05C220.7 408.74 222.12 411.44 223.54 414.13C223.86 414.74 224.79 414.2 224.47 413.59Z" fill="#EDE3DF"/>
<path d="M225.33 408.22C221.79 401.67 219.64 394.45 219.02 387.03C218.96 386.35 217.89 386.34 217.95 387.03C218.58 394.64 220.77 402.03 224.4 408.76C224.74 409.37 225.66 408.82 225.33 408.22Z" fill="#EDE3DF"/>
<path d="M224.959 394.7C222.719 390.42 221.619 385.63 221.739 380.8C221.759 380.11 220.689 380.11 220.669 380.8C220.539 385.82 221.699 390.8 224.029 395.24C224.349 395.85 225.279 395.31 224.959 394.7Z" fill="#EDE3DF"/>
<path d="M229.059 409.1C226.989 405.09 225.619 400.73 225.049 396.24C224.959 395.57 223.889 395.56 223.979 396.24C224.579 400.92 225.969 405.44 228.139 409.64C228.449 410.25 229.369 409.71 229.059 409.1Z" fill="#EDE3DF"/>
<path d="M228.389 397.07C226.449 391.99 225.349 386.65 225.129 381.21C225.099 380.52 224.029 380.52 224.059 381.21C224.279 386.73 225.379 392.19 227.349 397.35C227.599 398 228.639 397.72 228.389 397.07Z" fill="#EDE3DF"/>
<path d="M229.849 393.32C228.699 390.4 228.149 387.31 228.219 384.18C228.239 383.49 227.159 383.49 227.149 384.18C227.079 387.4 227.639 390.61 228.819 393.61C229.069 394.24 230.109 393.96 229.849 393.32Z" fill="#EDE3DF"/>
<path d="M239.559 347.41C245.359 351.76 249.769 357.83 252.109 364.69C252.329 365.34 253.369 365.06 253.139 364.41C250.699 357.27 246.139 351.01 240.099 346.49C239.549 346.07 239.009 347 239.559 347.41Z" fill="#EDE3DF"/>
<path d="M244.779 347.12C247.329 348.91 249.629 351.02 251.639 353.4C252.089 353.93 252.839 353.17 252.399 352.64C250.329 350.19 247.949 348.03 245.319 346.19C244.759 345.8 244.219 346.73 244.779 347.12Z" fill="#EDE3DF"/>
<path d="M248.58 345.81C253.19 348.54 257.27 352.14 260.5 356.41C263.66 360.58 265.43 365.71 269.01 369.56C269.48 370.07 270.24 369.31 269.77 368.8C267.82 366.7 266.49 364.17 265.12 361.68C263.86 359.39 262.48 357.2 260.87 355.15C257.63 351.03 253.63 347.56 249.12 344.89C248.52 344.53 247.98 345.45 248.58 345.81Z" fill="#EDE3DF"/>
<path d="M252.599 343.66C258.559 346.7 263.609 351.31 267.169 356.97C267.539 357.55 268.459 357.02 268.099 356.43C264.449 350.62 259.259 345.86 253.149 342.74C252.519 342.42 251.979 343.34 252.599 343.66Z" fill="#EDE3DF"/>
<path d="M261.309 345.37C268.369 351.6 274.779 358.54 280.419 366.07C280.829 366.62 281.759 366.08 281.349 365.53C275.649 357.92 269.199 350.91 262.069 344.61C261.549 344.15 260.789 344.91 261.309 345.37Z" fill="#EDE3DF"/>
<path d="M265.39 344.84C273.41 351.53 280.53 359.25 286.54 367.79C286.93 368.35 287.86 367.82 287.47 367.25C281.41 358.63 274.25 350.83 266.16 344.08C265.62 343.64 264.86 344.4 265.39 344.84Z" fill="#EDE3DF"/>
<path d="M279.75 354.7C283.63 359.51 287.22 364.55 290.5 369.79C290.87 370.37 291.79 369.84 291.43 369.25C288.1 363.93 284.46 358.82 280.51 353.95C280.07 353.4 279.32 354.17 279.75 354.7Z" fill="#EDE3DF"/>
<path d="M270.62 362.47C273.39 366.03 276.16 369.6 278.93 373.16C279.35 373.7 280.11 372.94 279.69 372.4C276.92 368.84 274.15 365.27 271.38 361.71C270.95 361.17 270.2 361.93 270.62 362.47Z" fill="#EDE3DF"/>
<path d="M276.07 366.29C278.78 369.26 281.5 372.23 284.21 375.21C284.68 375.72 285.43 374.96 284.97 374.45C282.26 371.48 279.54 368.51 276.83 365.53C276.36 365.02 275.6 365.78 276.07 366.29Z" fill="#EDE3DF"/>
<path d="M283.059 371.19C284.199 372.76 285.339 374.32 286.479 375.89C286.649 376.12 286.949 376.24 287.209 376.08C287.439 375.95 287.569 375.58 287.399 375.35C286.259 373.78 285.119 372.22 283.979 370.65C283.809 370.42 283.509 370.3 283.249 370.46C283.019 370.59 282.889 370.95 283.059 371.19Z" fill="#EDE3DF"/>
<path d="M232.479 384.71C230.159 378.62 229.119 372.13 229.419 365.62C229.449 364.93 228.379 364.93 228.349 365.62C228.039 372.22 229.089 378.82 231.439 385C231.689 385.63 232.729 385.35 232.479 384.71Z" fill="#EDE3DF"/>
<path d="M233.61 373.6C232.87 368.65 232.58 363.64 232.71 358.63C232.73 357.94 231.66 357.94 231.64 358.63C231.51 363.74 231.83 368.84 232.58 373.89C232.67 374.57 233.71 374.28 233.61 373.6Z" fill="#EDE3DF"/>
<path d="M235.85 362.87C235.97 361.01 235.76 359.14 235.25 357.35C235.06 356.69 234.03 356.97 234.22 357.63C234.71 359.34 234.9 361.1 234.79 362.87C234.73 363.56 235.8 363.56 235.85 362.87Z" fill="#EDE3DF"/>
<path d="M223.879 378.62C223.639 374.83 223.879 371.03 224.599 367.31C224.729 366.64 223.699 366.35 223.569 367.03C222.829 370.85 222.569 374.74 222.809 378.63C222.849 379.3 223.929 379.31 223.879 378.62Z" fill="#EDE3DF"/>
<path d="M223.289 362.9C224.029 360.3 224.769 357.71 225.499 355.11C225.689 354.45 224.659 354.16 224.469 354.83C223.729 357.43 222.989 360.02 222.259 362.62C222.069 363.28 223.109 363.57 223.289 362.9Z" fill="#EDE3DF"/>
<path d="M264.83 330.76C274.25 338.16 281.58 348.01 285.89 359.19C286.14 359.83 287.17 359.55 286.92 358.91C282.54 347.56 275.16 337.52 265.58 330C265.05 329.58 264.29 330.34 264.83 330.76Z" fill="#EDE3DF"/>
<path d="M258.74 319.96C267.7 324.44 275.31 331.32 280.64 339.81C281.01 340.39 281.93 339.86 281.57 339.27C276.15 330.64 268.4 323.6 259.28 319.04C258.67 318.73 258.13 319.65 258.74 319.96Z" fill="#EDE3DF"/>
<path d="M272.849 323.72C279.789 328.89 285.229 335.88 288.599 343.85C288.869 344.48 289.789 343.94 289.529 343.31C286.089 335.16 280.489 328.07 273.399 322.8C272.839 322.38 272.309 323.31 272.849 323.72Z" fill="#EDE3DF"/>
<path d="M277.879 321.84C282.119 325.64 285.539 330.26 287.939 335.42C288.229 336.04 289.149 335.5 288.869 334.88C286.439 329.64 282.939 324.93 278.639 321.08C278.119 320.63 277.359 321.38 277.879 321.84Z" fill="#EDE3DF"/>
<path d="M285.049 325.78C286.269 326.56 287.229 327.8 287.679 329.17C287.769 329.44 288.049 329.62 288.339 329.54C288.609 329.47 288.799 329.16 288.709 328.88C288.169 327.22 287.059 325.79 285.579 324.85C285.339 324.69 284.989 324.8 284.849 325.04C284.709 325.3 284.809 325.62 285.049 325.78Z" fill="#EDE3DF"/>
<path d="M238.189 342.84C236.919 340.47 237.019 337.52 238.429 335.24C238.789 334.65 237.869 334.11 237.499 334.7C235.889 337.31 235.809 340.69 237.259 343.38C237.589 343.99 238.509 343.45 238.189 342.84Z" fill="#EDE3DF"/>
<path d="M240.61 339.44C239.34 336.23 239.38 332.66 240.72 329.48C240.99 328.85 239.95 328.57 239.69 329.2C238.29 332.53 238.25 336.37 239.58 339.73C239.83 340.36 240.87 340.08 240.61 339.44Z" fill="#EDE3DF"/>
<path d="M244.119 337.89C243.049 335.33 242.669 332.56 242.999 329.8C243.039 329.51 242.729 329.27 242.459 329.26C242.139 329.26 241.959 329.51 241.919 329.8C241.579 332.64 241.979 335.54 243.079 338.17C243.189 338.44 243.429 338.62 243.739 338.54C243.999 338.48 244.229 338.16 244.119 337.89Z" fill="#EDE3DF"/>
<path d="M249.029 339.45C248.379 337.04 247.739 334.62 247.089 332.21C246.909 331.54 245.879 331.83 246.059 332.49C246.709 334.9 247.349 337.32 247.999 339.73C248.169 340.4 249.209 340.11 249.029 339.45Z" fill="#EDE3DF"/>
<path d="M246.85 323.78C246.3 325.26 246.55 327.03 247.51 328.28C247.69 328.51 247.97 328.63 248.24 328.47C248.47 328.34 248.61 327.97 248.43 327.74C247.61 326.67 247.41 325.31 247.88 324.06C247.98 323.79 247.77 323.47 247.51 323.4C247.21 323.32 246.96 323.51 246.85 323.78Z" fill="#EDE3DF"/>
<path d="M249.459 326.36C249.319 332.03 251.509 337.61 255.459 341.68C255.939 342.18 256.699 341.42 256.219 340.92C252.469 337.04 250.409 331.75 250.539 326.35C250.539 325.67 249.469 325.67 249.459 326.36Z" fill="#EDE3DF"/>
<path d="M252.78 328.94C255.13 334.63 258.61 339.79 263.04 344.07C263.54 344.55 264.29 343.79 263.8 343.31C259.51 339.17 256.09 334.17 253.82 328.65C253.55 328.03 252.51 328.3 252.78 328.94Z" fill="#EDE3DF"/>
<path d="M298.769 353.67C297.309 347.81 296.979 341.72 297.829 335.73C297.929 335.06 296.889 334.76 296.799 335.45C295.919 341.63 296.229 347.9 297.739 353.96C297.899 354.63 298.939 354.34 298.769 353.67Z" fill="#EDE3DF"/>
<path d="M293.459 360.61C293.039 353.22 293.299 345.82 294.229 338.48C294.319 337.8 293.239 337.8 293.159 338.48C292.229 345.82 291.969 353.22 292.389 360.61C292.429 361.3 293.499 361.3 293.459 360.61Z" fill="#EDE3DF"/>
<path d="M295.399 333.53C296.509 328.76 297.619 323.99 298.729 319.21C298.889 318.54 297.849 318.25 297.699 318.93C296.589 323.7 295.479 328.47 294.369 333.25C294.209 333.92 295.249 334.2 295.399 333.53Z" fill="#EDE3DF"/>
<path d="M304.23 312.58C305.71 310.87 307.63 309.6 309.79 308.93C310.45 308.73 310.17 307.69 309.51 307.9C307.18 308.62 305.08 309.98 303.48 311.83C303.02 312.34 303.77 313.1 304.23 312.58Z" fill="#EDE3DF"/>
<path d="M178.46 364.12C178.56 364.09 178.67 364.08 178.76 364.05C178.73 364.06 178.63 364.06 178.72 364.06C178.75 364.06 178.77 364.06 178.8 364.05C178.85 364.05 178.9 364.05 178.95 364.05C179 364.05 179.05 364.06 179.1 364.06C179.06 364.06 178.98 364.04 179.06 364.06C179.09 364.06 179.11 364.07 179.14 364.07C179.24 364.09 179.34 364.12 179.44 364.16C179.51 364.18 179.42 364.15 179.4 364.14C179.43 364.15 179.46 364.17 179.48 364.18C179.53 364.2 179.57 364.23 179.62 364.25C179.66 364.28 179.71 364.3 179.75 364.33C179.77 364.34 179.78 364.36 179.8 364.37C179.68 364.29 179.75 364.33 179.78 364.35C179.86 364.42 179.93 364.49 180 364.57C180.06 364.64 180 364.58 179.98 364.55C179.99 364.57 180.01 364.59 180.02 364.61C180.05 364.66 180.08 364.71 180.11 364.76C180.24 365.01 180.6 365.11 180.84 364.95C181.09 364.79 181.18 364.48 181.03 364.22C180.5 363.24 179.23 362.74 178.17 363.1C177.91 363.19 177.7 363.47 177.8 363.76C177.89 364.01 178.17 364.22 178.46 364.12Z" fill="#EDE3DF"/>
<path d="M179.379 361.92C184.509 364.71 188.749 368.93 191.579 374.03C191.909 374.63 192.839 374.09 192.509 373.49C189.599 368.24 185.199 363.87 179.919 361C179.309 360.67 178.769 361.59 179.379 361.92Z" fill="#EDE3DF"/>
<path d="M185.419 363.75C189.169 367.07 192.579 370.77 195.569 374.79C195.979 375.34 196.909 374.8 196.499 374.25C193.459 370.15 190.009 366.37 186.179 362.99C185.659 362.54 184.899 363.3 185.419 363.75Z" fill="#EDE3DF"/>
<path d="M192.18 367.76C193.82 368.58 195.12 369.86 195.97 371.49C196.1 371.75 196.46 371.82 196.7 371.68C196.96 371.53 197.03 371.2 196.89 370.95C195.98 369.19 194.49 367.73 192.72 366.84C192.46 366.71 192.14 366.77 191.99 367.03C191.85 367.26 191.92 367.63 192.18 367.76Z" fill="#EDE3DF"/>
<path d="M197.499 367.41C197.769 367.53 198.029 367.68 198.269 367.85C198.299 367.87 198.319 367.89 198.349 367.91C198.369 367.93 198.389 367.94 198.409 367.96C198.389 367.95 198.379 367.94 198.359 367.92C198.409 367.92 198.509 368.04 198.539 368.07C198.649 368.16 198.759 368.26 198.859 368.37C198.959 368.47 199.059 368.58 199.149 368.69C199.159 368.71 199.249 368.81 199.159 368.71C199.179 368.73 199.199 368.76 199.219 368.79C199.259 368.85 199.299 368.91 199.339 368.97C199.419 369.09 199.489 369.21 199.559 369.34C199.599 369.41 199.629 369.48 199.669 369.55C199.689 369.59 199.699 369.62 199.719 369.66C199.769 369.76 199.679 369.57 199.729 369.68C199.789 369.81 199.849 369.92 199.979 370C200.089 370.07 200.259 370.1 200.389 370.05C200.639 369.97 200.879 369.67 200.759 369.39C200.239 368.12 199.279 367.06 198.019 366.49C197.769 366.37 197.429 366.41 197.289 366.68C197.179 366.91 197.219 367.28 197.499 367.41Z" fill="#EDE3DF"/>
<path d="M304.359 337.56C303.189 331.02 304.019 324.22 306.749 318.17C307.029 317.55 306.109 317 305.819 317.63C302.959 323.97 302.089 331 303.319 337.85C303.449 338.53 304.479 338.24 304.359 337.56Z" fill="#EDE3DF"/>
<path d="M317.29 322.13C317.58 321.38 317.87 320.63 318.17 319.88C318.27 319.62 318.06 319.28 317.8 319.22C317.49 319.15 317.25 319.31 317.14 319.59C316.85 320.34 316.56 321.09 316.26 321.84C316.16 322.1 316.37 322.44 316.63 322.5C316.94 322.58 317.18 322.41 317.29 322.13Z" fill="#EDE3DF"/>
<path d="M234.1 405.9C233.32 399.93 234.1 393.89 236.38 388.32C236.64 387.68 235.6 387.4 235.35 388.04C233.05 393.68 232.24 399.86 233.03 405.9C233.11 406.58 234.19 406.59 234.1 405.9Z" fill="#EDE3DF"/>
<path d="M237.409 400.7C237.589 395.4 238.739 390.19 240.769 385.29C241.029 384.65 239.999 384.38 239.739 385.01C237.669 390 236.529 395.32 236.339 400.71C236.319 401.39 237.389 401.39 237.409 400.7Z" fill="#EDE3DF"/>
<path d="M238.269 384.88C238.809 383.65 239.349 382.43 239.899 381.2C240.019 380.94 239.979 380.62 239.709 380.47C239.479 380.34 239.089 380.4 238.979 380.66C238.439 381.89 237.899 383.11 237.349 384.34C237.229 384.6 237.269 384.92 237.539 385.07C237.759 385.2 238.149 385.14 238.269 384.88Z" fill="#EDE3DF"/>
<path d="M260.83 369.45C263.43 370.17 266.03 370.89 268.63 371.61C269.3 371.79 269.58 370.76 268.91 370.58C266.31 369.86 263.71 369.14 261.11 368.42C260.45 368.23 260.17 369.27 260.83 369.45Z" fill="#EDE3DF"/>
<path d="M267.2 375.33C272.78 377.65 278.36 379.98 283.94 382.3C284.58 382.56 284.85 381.53 284.22 381.27C278.64 378.95 273.06 376.62 267.48 374.3C266.85 374.03 266.57 375.07 267.2 375.33Z" fill="#EDE3DF"/>
<path d="M273.109 374.57C276.599 375.98 280.079 377.39 283.569 378.8C284.209 379.06 284.489 378.02 283.849 377.77C280.359 376.36 276.879 374.95 273.389 373.54C272.759 373.28 272.479 374.32 273.109 374.57Z" fill="#EDE3DF"/>
<path d="M271 382.94C274.41 384.47 277.45 386.72 279.91 389.54C280.36 390.06 281.12 389.3 280.67 388.78C278.16 385.9 275.03 383.58 271.55 382.01C270.92 381.73 270.38 382.65 271 382.94Z" fill="#EDE3DF"/>
<path d="M258.549 381.6C264.889 385.82 270.759 390.71 276.069 396.18C276.549 396.68 277.309 395.92 276.829 395.42C271.459 389.89 265.509 384.95 259.089 380.67C258.509 380.29 257.979 381.22 258.549 381.6Z" fill="#EDE3DF"/>
<path d="M271.659 388.95C275.689 391.87 279.439 395.16 282.869 398.76C283.349 399.26 284.099 398.5 283.629 398C280.129 394.33 276.309 390.99 272.199 388.02C271.639 387.62 271.109 388.55 271.659 388.95Z" fill="#EDE3DF"/>
<path d="M250.759 382.39C253.309 385.43 255.849 388.47 258.399 391.51C258.839 392.04 259.599 391.28 259.159 390.75C256.609 387.71 254.069 384.67 251.519 381.63C251.079 381.1 250.319 381.86 250.759 382.39Z" fill="#EDE3DF"/>
<path d="M246.24 389.22C247.93 391.58 249.62 393.95 251.31 396.31C251.71 396.87 252.64 396.33 252.24 395.77C250.55 393.41 248.86 391.04 247.17 388.68C246.76 388.12 245.83 388.66 246.24 389.22Z" fill="#EDE3DF"/>
<path d="M111.259 554.74C128.129 554.11 145.049 556.54 161.049 561.93C165.679 563.49 170.219 565.29 174.659 567.33C175.279 567.62 175.829 566.69 175.199 566.4C159.729 559.3 143.019 555.04 126.029 553.88C121.109 553.55 116.179 553.48 111.249 553.67C110.569 553.7 110.569 554.77 111.259 554.74Z" fill="#EDE3DF"/>
<path d="M49.8691 553.19C60.6291 556.98 71.9291 559.03 83.3291 559.25C84.0191 559.26 84.0191 558.19 83.3291 558.18C72.0191 557.95 60.8191 555.92 50.1491 552.15C49.5091 551.92 49.2291 552.96 49.8691 553.19Z" fill="#EDE3DF"/>
<path d="M90.7091 555.99C94.5291 555.74 98.3391 555.48 102.159 555.23C102.839 555.18 102.849 554.11 102.159 554.16C98.3391 554.41 94.5291 554.67 90.7091 554.92C90.0291 554.96 90.0191 556.03 90.7091 555.99Z" fill="#EDE3DF"/>
<path d="M46.4793 559.43C48.0093 564.31 52.4792 567.19 56.7192 569.54C62.2592 572.61 67.9592 575.41 73.7592 577.96C85.3392 583.05 97.3693 587.11 109.669 590.06C116.639 591.73 123.689 593.04 130.799 594C131.469 594.09 131.769 593.06 131.079 592.97C106.739 589.68 83.0093 582.16 61.2493 570.76C56.1293 568.08 49.3893 565.13 47.5093 559.15C47.2993 558.49 46.2693 558.77 46.4793 559.43Z" fill="#EDE3DF"/>
</g>
</g>
<defs>
<clipPath id="clip0_96_6798">
<rect width="360.293" height="328.943" fill="white" transform="translate(22.707 233.057)"/>
</clipPath>
</defs>
</svg>
