<svg width="78" height="78" viewBox="0 0 78 78" fill="none" xmlns="http://www.w3.org/2000/svg">
<path d="M58.5 19.0067C58.5 13.5018 55.8308 8.99496 51.5369 7.24459C47.522 5.60846 42.939 6.69713 39 10.1217C35.0581 6.69713 30.4687 5.60846 26.4631 7.24459C22.1692 8.99496 19.5 13.5018 19.5 19.0067C19.5 29.5835 29.2881 38.4068 38.3843 42.1313C38.779 42.2921 39.221 42.2921 39.6157 42.1313C48.7119 38.4069 58.5 29.5835 58.5 19.0067Z" fill="#FFAA17"/>
<path d="M32.5255 52.881C32.5204 52.8759 32.5134 52.8741 32.5084 52.869C32.5035 52.8639 32.501 52.8551 32.4952 52.8493L24.4528 44.8036C23.8414 44.202 23.0169 43.8663 22.1591 43.8699C21.3013 43.8735 20.4796 44.216 19.8733 44.8228C19.2669 45.4296 18.9249 46.2515 18.9219 47.1093C18.9189 47.9671 19.2551 48.7913 19.8571 49.4024L19.8375 49.3938L24.5274 54.0838C24.6821 54.2338 24.8053 54.4131 24.8901 54.6112C24.9748 54.8093 25.0193 55.0223 25.0209 55.2378C25.0225 55.4533 24.9813 55.6669 24.8996 55.8663C24.8179 56.0657 24.6974 56.2468 24.545 56.3992C24.3926 56.5516 24.2115 56.6721 24.0121 56.7538C23.8127 56.8355 23.5991 56.8767 23.3836 56.8751C23.1681 56.8735 22.9551 56.829 22.757 56.7443C22.5589 56.6595 22.3796 56.5363 22.2296 56.3816L13 47.1269V35.7519C13 34.8899 12.6576 34.0633 12.0481 33.4538C11.4386 32.8443 10.612 32.5019 9.75004 32.5019C8.88809 32.5019 8.06144 32.8443 7.45195 33.4538C6.84245 34.0633 6.50004 34.8899 6.50004 35.7519V50.9184C6.49704 51.6239 6.64832 52.3216 6.94328 52.9625C7.23824 53.6034 7.66976 54.172 8.20759 54.6286L22.75 68.9723V69.8769C22.7499 70.0903 22.7919 70.3017 22.8735 70.4989C22.9551 70.6961 23.0748 70.8753 23.2257 71.0262C23.3766 71.1771 23.5558 71.2968 23.753 71.3785C23.9502 71.4601 24.1616 71.502 24.375 71.5019H34.125C34.3385 71.502 34.5498 71.4601 34.7471 71.3785C34.9443 71.2968 35.1235 71.1771 35.2744 71.0262C35.4253 70.8753 35.545 70.6961 35.6266 70.4989C35.7082 70.3017 35.7502 70.0903 35.75 69.8769V58.2195C35.7499 56.9443 35.249 55.7202 34.3551 54.8107L32.5255 52.881Z" fill="#FFAA17"/>
<path d="M68.25 32.5019C67.3883 32.5028 66.5622 32.8454 65.9529 33.4547C65.3435 34.0641 65.0009 34.8902 65 35.7519V47.1269L55.7705 56.3818C55.4642 56.6788 55.0534 56.8436 54.6267 56.8403C54.2 56.8371 53.7917 56.6661 53.49 56.3644C53.1883 56.0627 53.0173 55.6544 53.0141 55.2277C53.0108 54.801 53.1756 54.3902 53.4727 54.0839L58.1626 49.394L58.1429 49.4025C58.4487 49.1016 58.6919 48.7432 58.8585 48.3478C59.0251 47.9525 59.1118 47.5281 59.1136 47.0991C59.1154 46.6701 59.0322 46.2449 58.869 45.8482C58.7057 45.4515 58.4655 45.091 58.1622 44.7876C57.859 44.4841 57.4987 44.2437 57.1021 44.0801C56.7054 43.9166 56.2804 43.8331 55.8514 43.8347C55.4224 43.8362 54.9979 43.9226 54.6024 44.0889C54.207 44.2552 53.8484 44.4982 53.5472 44.8038L45.5048 52.8495C45.499 52.8553 45.4974 52.8631 45.4916 52.8692C45.4859 52.8752 45.4796 52.8761 45.4747 52.8812L43.6449 54.8109C42.7511 55.7203 42.2502 56.9443 42.25 58.2195V69.8769C42.2499 70.0903 42.2918 70.3017 42.3734 70.4989C42.4551 70.6961 42.5747 70.8753 42.7257 71.0262C42.8766 71.1771 43.0558 71.2968 43.253 71.3785C43.4502 71.4601 43.6616 71.502 43.875 71.5019H53.625C53.8384 71.502 54.0498 71.4601 54.247 71.3785C54.4442 71.2968 54.6234 71.1771 54.7743 71.0262C54.9253 70.8753 55.0449 70.6961 55.1266 70.4989C55.2082 70.3017 55.2501 70.0903 55.25 69.8769V68.9723L69.7924 54.6286C70.3303 54.172 70.7618 53.6034 71.0568 52.9625C71.3517 52.3216 71.503 51.6239 71.5 50.9184V35.7519C71.4991 34.8902 71.1565 34.0641 70.5471 33.4547C69.9378 32.8454 69.1117 32.5028 68.25 32.5019Z" fill="#FFAA17"/>
</svg>
