<svg width="74" height="74" viewBox="0 0 74 74" fill="none" xmlns="http://www.w3.org/2000/svg">
<path fill-rule="evenodd" clip-rule="evenodd" d="M36.9999 11.6293C47.1633 11.6293 55.4023 19.8683 55.4023 30.0317C55.4023 40.1952 47.1632 48.4342 36.9999 48.4342C26.8366 48.4342 18.5974 40.195 18.5974 30.0317C18.5974 19.8684 26.8366 11.6293 36.9999 11.6293ZM31.2483 59.8245C27.8589 60.6502 24.3599 59.2817 22.4294 56.3298L19.9927 52.6039C19.6349 52.0567 19.2279 51.6808 18.6765 51.3959L12.3096 65.0713C12.1294 65.4581 12.4575 65.8859 12.8778 65.8125L20.862 64.4174L24.9341 71.4252C25.1483 71.7936 25.6873 71.7692 25.8671 71.3828L31.2483 59.8245ZM42.7516 59.8245L48.1328 71.3828C48.3126 71.7692 48.8517 71.7934 49.0658 71.4252L53.138 64.4174L61.1221 65.8125C61.5424 65.8859 61.8705 65.4581 61.6903 65.0713L55.3234 51.3957C54.7719 51.6806 54.3649 52.0567 54.0072 52.6037L51.5705 56.3296C49.6397 59.2817 46.1409 60.6501 42.7516 59.8245ZM40.5448 3.51052C38.4108 1.91316 35.589 1.91316 33.455 3.51052L29.8908 6.17828C28.9161 6.90787 27.8901 7.28134 26.6744 7.34898L22.2295 7.59627C19.568 7.74427 17.4062 9.55814 16.7983 12.1535L15.783 16.488C15.5052 17.6734 14.9594 18.6189 14.0716 19.4522L10.8254 22.4989C8.88176 24.3232 8.3918 27.1021 9.5943 29.4811L11.6027 33.4542C12.1519 34.5408 12.3415 35.6161 12.197 36.825L11.6686 41.2455C11.3522 43.8923 12.7631 46.3361 15.2135 47.3856L19.3059 49.1383C20.4252 49.6176 21.2616 50.3194 21.9279 51.3384L24.3645 55.0642C25.8236 57.2951 28.4751 58.2603 31.0268 57.489L35.2883 56.2011C36.4538 55.8489 37.5456 55.8489 38.7111 56.2011L42.9726 57.489C45.5243 58.2603 48.1759 57.2951 49.6349 55.0642L52.0716 51.3384C52.738 50.3194 53.5744 49.6176 54.6937 49.1383L58.7861 47.3857C61.2365 46.3363 62.6474 43.8926 62.331 41.2456L61.8026 36.8251C61.6581 35.6161 61.8477 34.5409 62.3969 33.4544L64.4053 29.4812C65.6078 27.1022 65.1179 24.3233 63.1742 22.499L59.928 19.4523C59.0403 18.6191 58.4944 17.6736 58.2166 16.4881L57.2013 12.1536C56.5933 9.55828 54.4317 7.74442 51.7701 7.59642L47.3252 7.34912C46.1095 7.28148 45.0835 6.90816 44.1088 6.17842L40.5448 3.51052ZM39.316 25.0643C39.3719 24.9218 39.4572 24.7881 39.572 24.6726C40.0212 24.223 40.5078 23.4959 40.5961 22.8552V19.8618C40.5961 17.1855 38.4065 14.9967 35.7303 14.9967V19.0536C35.7303 22.4242 32.7034 23.9514 30.3306 25.7332L30.3286 39.098C33.3392 41.9814 36.245 41.3299 41.4244 40.4381C41.6103 40.4981 41.8083 40.5303 42.0134 40.5303H45.1342C46.1976 40.5303 47.0675 39.6604 47.0675 38.5972C47.0675 37.534 46.1976 36.6638 45.1342 36.6638H46.2873C47.3506 36.6637 48.2206 35.7939 48.2206 34.7304C48.2206 33.6671 47.3506 32.7972 46.2873 32.7972H47.6439C48.7072 32.7972 49.5771 31.9272 49.5771 30.8639C49.5771 29.8006 48.7072 28.9307 47.6439 28.9307H46.8295C47.8928 28.9307 48.7627 28.0607 48.7627 26.9974C48.7627 25.9341 47.8926 25.0643 46.8295 25.0642C44.3252 25.0643 41.8206 25.0643 39.316 25.0643ZM28.0154 39.098L28.0268 25.7348H25.1784V39.098H28.0154Z" fill="#FFAA17"/>
</svg>
