<svg width="78" height="50" viewBox="0 0 78 50" fill="none" xmlns="http://www.w3.org/2000/svg">
<path d="M33.8752 38.1801C33.4472 37.6114 33.5125 36.7856 34.0683 36.341C34.6434 35.8808 35.4806 35.9893 35.9201 36.5737L44.6475 48.1711C44.8804 48.4807 45.2394 48.6737 45.6264 48.6893C47.6861 48.7717 49.6587 47.6917 50.673 45.8893C50.9277 45.4367 50.8815 44.874 50.564 44.463L42.126 33.5427C41.6871 32.9746 41.7918 32.1582 42.3599 31.7191C42.9283 31.2801 43.7444 31.3849 44.1834 31.953L53.3262 43.7852C53.6479 44.2016 54.1895 44.3854 54.697 44.2459C56.1246 43.854 57.415 42.9113 58.1612 41.4979C58.3928 41.0591 58.3529 40.5258 58.0606 40.1251L50.8792 30.2761C50.4897 29.742 50.5266 28.986 51.0078 28.5328C51.5897 27.9846 52.4986 28.084 52.9544 28.7091L60.3098 38.7967C60.6154 39.2157 61.1432 39.4224 61.647 39.2989C65.3309 38.3963 67.2505 33.8913 64.781 30.5615L58.8851 22.5704C58.5317 22.0913 57.8965 21.9108 57.3469 22.1399C51.2363 24.6868 44.4226 23.8946 39.3648 19.7336C38.9825 19.419 38.4581 19.3413 38.0053 19.5419L32.4092 22.0205C28.9658 23.5464 24.9293 22.5486 22.5925 19.596C19.9812 16.2956 20.181 11.718 23.0654 8.70848C26.9542 4.65589 27.9937 3.47127 30.2512 1.8786C31.012 1.34187 30.6558 0.14879 29.7255 0.108815C27.0324 -0.0067223 24.3233 0.307065 21.678 1.05619C14.5334 3.07964 12.8949 3.50052 12.5325 3.57998H1.3C0.582075 3.57998 0 4.16205 0 4.87998V32.3425C0 33.0604 0.582075 33.6425 1.3 33.6425H8.4578C12.7342 36.1321 17.5615 37.3062 22.482 37.0564L31.0624 47.6891C33.4406 50.6023 37.6264 50.5927 39.9747 48.0596C40.4017 47.5991 40.435 46.8971 40.0574 46.3953L33.8752 38.1801Z" fill="#FFAA17"/>
<path d="M76.7001 5.85482H64.3775C61.9667 5.85482 59.6073 4.92809 57.7344 3.2454C55.4085 1.15565 52.4143 0.00482348 49.3031 0.00482348C43.864 0.00482348 43.1661 -0.052214 41.232 0.225986C36.3099 0.936273 31.9251 3.28424 28.7089 6.60557C27.1392 8.2257 25.9416 9.46558 24.9422 10.5072C22.9662 12.5693 22.8346 15.7121 24.6318 17.9822C26.2324 20.0053 28.9982 20.6878 31.3561 19.643L39.3364 16.1086C44.526 21.9412 52.9538 22.5491 59.6246 17.9432C60.5078 17.3333 61.6737 17.9733 61.6737 19.0092C61.6737 19.4171 61.4819 19.8201 61.1196 20.0703C60.9327 20.2003 60.7442 20.3271 60.5524 20.4489L66.8737 29.0176C68.1537 30.744 68.6566 32.8029 68.4379 34.7798H76.7001C77.418 34.7798 78.0001 34.1978 78.0001 33.4798V7.15482C78.0001 6.4369 77.418 5.85482 76.7001 5.85482Z" fill="#FFAA17"/>
</svg>
