<svg width="383" height="562" viewBox="0 0 383 562" fill="none" xmlns="http://www.w3.org/2000/svg">
<g opacity="0.2">
<mask id="mask0_96_6799" style="mask-type:alpha" maskUnits="userSpaceOnUse" x="147" y="95" width="236" height="467">
<rect x="383" y="562" width="235.052" height="466.115" rx="21" transform="rotate(180 383 562)" fill="#81CBCE"/>
</mask>
<g mask="url(#mask0_96_6799)">
</g>
<g clip-path="url(#clip0_96_6799)">
<path d="M69.9681 -17.9106C67.2466 -23.01 62.6424 -26.7372 57.5559 -29.3496C52.2978 -32.0477 46.4319 -33.8487 40.6056 -34.825C33.6828 -35.9861 26.5222 -35.6562 19.7315 -33.8619C18.0404 -33.4133 16.3757 -32.8789 14.7507 -32.2522C13.6277 -31.8168 12.3991 -31.4012 11.3554 -30.8009C11.0251 -30.6096 10.708 -30.3721 10.3975 -30.1544C5.50269 -26.79 0.819214 -23.0826 -3.58021 -19.098C-9.70373 -13.5566 -15.6885 -7.2698 -19.401 0.184694C-21.0524 3.50293 -22.248 7.13123 -22.2613 10.8717C-22.2679 12.633 -22.0036 14.4076 -21.4487 16.0766C-21.2704 16.6242 -21.1515 17.33 -20.6428 17.6665C-19.903 18.1546 -18.78 18.2932 -17.9477 18.4845C-14.4731 19.2827 -10.9324 19.8302 -7.41153 20.3778C-0.581195 21.4399 6.27556 22.3041 13.0795 23.5641C18.1329 24.5009 23.1863 25.6949 28.3123 26.1435C31.5161 26.4271 35.0304 26.3348 37.8444 24.5866C39.9516 23.2804 41.7616 21.3937 43.5055 19.6521C49.3516 13.8139 54.7353 7.46107 59.7953 0.930147C62.18 -2.1506 64.5052 -5.29732 66.5926 -8.58917C67.96 -10.7529 69.5255 -13.1476 70.1002 -15.6742C70.2522 -16.4131 70.3248 -17.2047 69.9681 -17.9106C69.5586 -18.722 68.3365 -18.0095 68.7461 -17.1981C68.7064 -17.2773 68.7791 -17.1322 68.8055 -16.9672C68.7791 -17.1124 68.8121 -16.7429 68.8055 -16.611C68.7989 -16.3603 68.7196 -16.0107 68.6073 -15.6149C68.2969 -14.5462 67.7948 -13.5369 67.2796 -12.5605C65.7074 -9.6051 63.7918 -6.83441 61.8299 -4.12968C57.0011 2.53978 51.69 8.8926 46.0884 14.9288C43.9349 17.2443 41.7418 19.5466 39.3637 21.6312C37.567 23.2079 35.7438 24.3359 33.2865 24.6988C29.3494 25.2793 25.1944 24.4019 21.3301 23.696C15.2065 22.5746 9.10283 21.3409 2.93306 20.4701C-2.52328 19.6983 -7.98622 18.9397 -13.4095 17.9567C-15.3913 17.6005 -17.4126 17.2641 -19.3349 16.6703C-19.5 16.6176 -19.6586 16.5648 -19.8171 16.5054C-20.0021 16.4394 -19.6982 16.5054 -19.8039 16.512C-19.8171 16.512 -19.8898 16.479 -19.8964 16.4658C-20.0021 16.3405 -19.8039 16.5516 -19.8369 16.5186C-19.8435 16.512 -19.7312 16.6505 -19.7312 16.6505C-19.7114 16.6374 -20.0681 15.7336 -20.1276 15.5555C-21.1911 12.2438 -20.9665 8.72108 -19.9823 5.42263C-17.7231 -2.1572 -12.2205 -8.62217 -6.73775 -14.1306C-1.94859 -18.9463 3.30299 -23.3134 8.79896 -27.298C9.85588 -28.0632 10.9194 -28.9142 12.0556 -29.5673C12.9275 -30.0687 13.9316 -30.4249 14.863 -30.7877C16.4418 -31.4078 18.0602 -31.9422 19.6984 -32.3908C23.0079 -33.2945 26.4099 -33.8487 29.8383 -34.0334C36.2722 -34.3764 42.5939 -33.3077 48.7241 -31.3946C54.154 -29.6992 59.5509 -27.2782 63.8182 -23.4454C65.8131 -21.651 67.491 -19.5664 68.7593 -17.2047C69.1754 -16.3933 70.3975 -17.1058 69.9681 -17.9106Z" fill="#EDE3DF"/>
<path d="M63.9707 -23.6829C69.7309 -25.7345 75.9799 -25.7939 81.9845 -25.0022C89.0857 -24.0589 96.0085 -21.9413 102.687 -19.4081C116.744 -14.0778 130.048 -6.73543 142.837 1.10168C146.278 3.21269 149.693 5.44903 152.527 8.35167C155.196 11.0894 157.138 14.368 158.102 18.0755C159.034 21.6576 159.067 25.4772 158.136 29.0659C157.673 30.8537 156.966 32.5755 156.022 34.1653C155.037 35.8277 153.776 37.5363 151.86 38.163C147.698 39.522 143.821 36.2169 140.597 34.1059C137.275 31.9224 133.562 30.4381 129.711 29.4881C121.817 27.5354 113.606 27.608 105.547 26.8691C89.4556 25.3914 73.9255 19.4015 61.0377 9.65125C59.4061 8.41763 57.8207 7.11145 56.2816 5.75909C55.6012 5.15877 54.5971 6.1549 55.2775 6.76181C67.7822 17.739 83.4114 25.0814 99.8795 27.6014C108.223 28.8746 116.718 28.6371 125.054 29.9895C129.176 30.6558 133.285 31.7377 137.017 33.6574C140.677 35.5375 143.814 38.7633 147.936 39.6407C149.839 40.0431 151.893 39.9376 153.597 38.9283C155.249 37.9519 156.425 36.3027 157.369 34.6733C159.219 31.4672 160.157 27.7729 160.223 24.0853C160.289 20.3382 159.45 16.5714 157.779 13.2136C155.969 9.58528 153.102 6.63646 149.918 4.17582C146.787 1.75476 143.358 -0.257279 139.963 -2.28253C136.707 -4.22201 133.43 -6.11532 130.114 -7.94926C123.171 -11.7886 116.083 -15.3774 108.777 -18.4713C101.802 -21.4267 94.6081 -23.9995 87.1766 -25.5366C80.8087 -26.856 74.1369 -27.4629 67.7095 -26.1831C66.3091 -25.906 64.9351 -25.5234 63.5875 -25.0484C62.742 -24.745 63.1053 -23.3794 63.9707 -23.6829Z" fill="#EDE3DF"/>
<path d="M79.4213 -26.1897C94.5154 -38.2686 115.086 -39.2779 133.443 -36.5006C143.748 -34.9437 153.908 -32.4171 164.014 -29.9037C173.943 -27.4365 183.865 -24.6856 193.304 -20.7011C202.07 -17.0068 209.779 -10.9838 216.629 -4.47269C218.287 -2.89603 219.899 -1.27321 221.478 0.382613C223.037 2.03184 224.774 3.69427 226.049 5.57439C227.007 6.98612 227.839 9.64467 225.91 10.7266C225.078 11.1949 224.371 10.8123 223.572 10.5286C222.931 10.2977 222.277 10.0998 221.623 9.90853C215.11 8.01522 208.22 6.94652 201.462 6.46495C199.124 6.30003 196.832 6.29343 194.507 6.55071C192.564 6.76181 190.609 6.88057 188.66 6.97292C182.365 7.27638 176.043 7.26319 169.755 6.84758C163.334 6.41878 156.695 5.67334 150.638 3.39082C149.442 2.94223 148.28 2.40128 147.17 1.76138C146.384 1.3062 145.664 2.52661 146.456 2.98179C151.866 6.12191 158.466 7.12465 164.589 7.81072C171.373 8.56277 178.23 8.7145 185.054 8.52978C187.551 8.46381 190.048 8.34506 192.538 8.15375C194.434 8.00203 196.303 7.73156 198.212 7.75135C201.594 7.78434 204.983 8.16695 208.326 8.64852C211.926 9.16968 215.519 9.82278 219.053 10.7002C220.447 11.0498 221.834 11.4258 223.189 11.9074C223.915 12.1647 224.569 12.4747 225.369 12.3758C226.326 12.257 227.172 11.7227 227.727 10.9376C230.415 7.12464 225.791 2.96861 223.426 0.41561C216.834 -6.68925 209.462 -13.2993 201.112 -18.28C196.865 -20.8132 192.327 -22.6999 187.689 -24.3887C182.682 -26.2095 177.576 -27.7597 172.437 -29.1649C162.092 -31.9883 151.602 -34.5413 141.079 -36.5864C130.88 -38.572 120.417 -39.8453 110.026 -38.9283C100.903 -38.1235 91.807 -35.709 83.9066 -30.9988C81.9843 -29.8575 80.1545 -28.5712 78.4106 -27.1726C77.7104 -26.6185 78.7145 -25.6289 79.4213 -26.1897Z" fill="#EDE3DF"/>
<path d="M155.751 36.2038C163.143 40.2081 169.814 45.446 175.383 51.7461C178.184 54.9192 180.932 58.1978 182.828 62.0108C184.757 65.8832 185.728 70.158 186.349 74.4196C186.943 78.5097 187.095 82.9164 185.186 86.7096C185.08 86.9207 184.968 87.1186 184.856 87.3297C184.552 87.8971 184.743 87.521 184.75 87.5276C184.763 87.5672 184.895 87.3165 184.809 87.4749C184.889 87.3231 184.948 87.5144 184.862 87.4617C184.862 87.4617 184.631 87.4023 184.843 87.4682C184.717 87.4353 184.598 87.4023 184.479 87.3561C183.971 87.1582 183.224 86.6173 182.696 86.2148C180.747 84.7437 178.963 83.0417 177.18 81.3859C174.841 79.2155 172.529 77.0188 170.171 74.8682C166.327 71.3652 162.343 68.1196 158.043 65.1971C154.271 62.6375 150.46 60.1373 146.642 57.6437C137.209 51.4822 127.729 45.3933 118.224 39.3373C114.789 37.1471 111.354 34.9636 107.905 32.7998C106.221 31.7443 104.517 30.7086 102.845 29.6201C101.26 28.5844 99.6218 27.5355 98.2611 26.2095C98.1818 26.1369 97.977 25.8994 98.162 26.1105C98.1422 26.0907 98.1289 26.0644 98.1157 26.038C97.7326 25.2134 96.5171 25.9324 96.8937 26.7504C97.1975 27.4035 98.0695 27.9511 98.6046 28.3667C100.798 30.0687 103.176 31.5266 105.534 32.9911C108.639 34.9174 111.724 36.8833 114.808 38.8425C124.479 44.9908 134.117 51.1787 143.722 57.426C147.864 60.1241 152.005 62.8354 156.114 65.5929C160.289 68.4032 164.226 71.4114 167.978 74.7824C172.477 78.8197 176.678 83.266 181.427 86.9999C182.339 87.7189 183.891 89.1571 185.193 88.8338C185.496 88.7612 185.708 88.5897 185.893 88.3456C186.415 87.6662 186.745 86.7624 187.049 85.9708C187.782 84.0445 188.106 81.973 188.165 79.9148C188.284 75.7192 187.472 71.3256 186.342 67.2949C185.14 63.0136 183.145 59.1412 180.456 55.6118C175.271 48.8104 169.009 42.8798 161.848 38.1829C160.104 37.035 158.307 35.9729 156.477 34.9768C155.665 34.548 154.952 35.7684 155.751 36.2038Z" fill="#EDE3DF"/>
<path d="M167.892 74.5779C175.429 82.3029 177.959 94.2234 174.438 104.389C174.002 105.656 173.467 106.883 172.84 108.064C172.529 108.644 172.219 109.436 171.453 109.429C170.607 109.423 170.013 108.717 169.669 108.024C169.015 106.685 168.764 105.122 168.249 103.723C167.747 102.351 167.159 101.012 166.505 99.7121C163.77 94.2894 159.78 89.533 155.15 85.6145C149.654 80.9637 143.312 77.4475 136.7 74.6373C135.874 74.2876 135.147 75.5015 135.986 75.8577C148.214 81.056 159.959 89.0317 165.752 101.401C166.452 102.898 167.047 104.449 167.529 106.032C167.952 107.411 168.242 109.007 169.378 110.01C170.31 110.834 171.763 111.177 172.84 110.432C173.917 109.687 174.491 107.998 174.993 106.837C177.226 101.671 177.88 95.9518 177.074 90.3972C176.169 84.1104 173.329 78.1402 168.883 73.5884C168.255 72.9287 167.251 73.9248 167.892 74.5779Z" fill="#EDE3DF"/>
<path d="M71.3952 18.0953C81.7728 24.138 90.6443 32.615 97.2765 42.6093C100.579 47.5834 103.341 52.9203 105.441 58.5078C106.485 61.2917 107.377 64.1284 108.097 67.0112C108.942 70.3954 109.669 73.8852 109.715 77.3881C109.801 84.3215 106.386 90.5094 102.574 96.0772C100.712 98.7951 98.8223 101.553 96.6688 104.053C94.5153 106.553 91.9589 108.638 88.7221 109.522C85.3928 110.432 81.8389 110.195 78.47 109.64C74.8963 109.06 71.3688 108.176 67.9272 107.041C61.196 104.825 54.4845 101.665 49.1273 96.9611C38.8685 87.963 33.9935 74.4987 29.9376 61.8591C29.4355 60.2824 28.9467 58.7057 28.4711 57.1225C28.2069 56.2517 26.8461 56.6211 27.1037 57.4985C29.1647 64.3659 31.4503 71.1871 34.304 77.7708C36.9925 83.9719 40.3812 89.9157 44.9921 94.9029C49.9067 100.227 56.136 103.908 62.7945 106.645C66.3022 108.09 69.9287 109.251 73.6214 110.109C77.1026 110.92 80.7093 111.593 84.2962 111.527C87.6916 111.461 91.0473 110.63 93.8415 108.631C96.5103 106.718 98.5316 104.112 100.454 101.487C104.49 95.965 108.731 90.1795 110.422 83.4441C112.106 76.7285 110.462 69.6104 108.506 63.1191C106.716 57.1687 104.213 51.4294 101.095 46.0529C94.8984 35.3725 86.2714 26.0907 75.9664 19.2563C74.7113 18.4251 73.4232 17.6269 72.1218 16.8682C71.3226 16.4197 70.6091 17.6401 71.3952 18.0953Z" fill="#EDE3DF"/>
<path d="M28.656 25.9654C32.4147 39.9442 28.4381 54.5299 23.2129 67.5852C20.4121 74.5845 17.1753 81.3925 13.912 88.1873C12.2474 91.6507 10.5761 95.114 8.90487 98.584C7.41197 101.685 6.05779 104.957 3.56742 107.411C-1.32743 112.226 -8.59374 113.401 -15.1665 112.398C-18.5288 111.883 -21.9902 110.973 -25.0024 109.357C-28.008 107.74 -30.2077 105.273 -31.9516 102.384C-35.6641 96.2553 -37.9563 89.3022 -39.218 82.2765C-39.8851 78.5624 -40.2815 74.8088 -40.5854 71.0486C-40.8826 67.3015 -41.127 63.5347 -40.8562 59.7811C-40.592 56.133 -39.7134 52.63 -38.3526 49.2392C-37.005 45.888 -35.2942 42.6951 -33.6493 39.489C-31.8724 36.0322 -30.102 32.5689 -28.3251 29.1121C-26.7926 26.1237 -25.3261 23.0825 -23.4567 20.2854C-22.5583 18.9397 -21.574 17.6731 -20.5237 16.4461C-19.9358 15.76 -20.9333 14.7507 -21.5278 15.4433C-26.2575 20.9583 -29.1838 27.6872 -32.4735 34.0993C-34.2372 37.5363 -36.0538 40.9601 -37.7383 44.4367C-39.3171 47.6824 -40.7439 51.0468 -41.5366 54.5827C-42.3821 58.3693 -42.4878 62.2747 -42.3227 66.1339C-42.1575 70.026 -41.814 73.9314 -41.3252 77.7972C-40.3674 85.311 -38.5244 92.6138 -35.1686 99.435C-33.689 102.443 -31.9847 105.445 -29.5604 107.8C-27.1162 110.168 -23.9917 111.613 -20.7681 112.583C-14.0369 114.608 -6.49312 115.004 -0.0855527 111.738C2.76152 110.293 5.21887 108.156 6.94297 105.465C7.95364 103.888 8.73972 102.173 9.55222 100.484C10.4044 98.7225 11.2499 96.9546 12.102 95.1932C15.5304 88.0751 19.0182 80.9835 22.1626 73.7335C27.969 60.3616 33.1413 45.6703 31.0803 30.8735C30.8359 29.0989 30.4726 27.3441 30.0036 25.6091C29.7856 24.7054 28.4182 25.0814 28.656 25.9654Z" fill="#EDE3DF"/>
<path d="M64.1952 107.694C64.7898 110.973 64.3274 114.575 63.5941 117.807C62.9071 120.829 61.9163 123.797 60.6348 126.621C59.2542 129.669 57.5433 132.624 55.3502 135.164C53.4147 137.407 50.9508 139.603 48.1499 140.626C44.4375 141.978 39.8861 140.652 36.3388 139.386C30.3408 137.242 24.7788 133.805 19.8113 129.86C12.7695 124.266 6.76493 117.425 2.06164 109.772C1.58603 109 0.357355 109.706 0.839574 110.485C5.23239 117.623 10.7284 124.081 17.1426 129.484C22.3413 133.864 28.1411 137.651 34.4694 140.177C38.4857 141.78 43.374 143.278 47.7271 142.222C50.4421 141.563 52.9259 139.65 54.8878 137.73C57.3649 135.302 59.3268 132.373 60.9122 129.299C63.8121 123.672 65.6815 117.405 65.8401 111.059C65.8731 109.799 65.8005 108.552 65.5759 107.305C65.3975 106.428 64.0367 106.804 64.1952 107.694Z" fill="#EDE3DF"/>
<path d="M48.6647 140.415C45.9101 143.397 42.3165 146.154 38.3531 147.269C34.2245 148.43 29.7524 146.886 26.1985 144.769C18.9652 140.468 14.2487 132.954 9.98803 125.935C7.45143 121.765 5.27154 117.379 3.76543 112.734C3.48799 111.87 2.1206 112.24 2.39804 113.11C3.80506 117.445 5.77358 121.574 8.07898 125.506C10.391 129.451 12.9012 133.356 15.7086 136.965C18.3377 140.342 21.3763 143.436 25.0227 145.712C28.5898 147.935 33.0355 149.591 37.2962 148.945C39.7535 148.569 42.0655 147.394 44.1397 146.062C46.1743 144.756 48.0305 143.186 49.6687 141.411C50.2831 140.745 49.2856 139.749 48.6647 140.415Z" fill="#EDE3DF"/>
<path d="M3.33638 116.092C2.46442 121.488 1.93597 126.937 1.60568 132.393C1.44054 135.091 1.32164 137.796 1.22256 140.494C1.16971 141.899 1.12348 143.304 1.08384 144.71C1.04421 145.93 0.931906 147.177 0.997964 148.397C1.09705 150.205 1.76421 151.94 2.20019 153.688C2.52387 154.987 3.04573 157 1.87652 158.035C0.978138 158.833 -0.428879 159.15 -1.56507 159.388C-3.34862 159.764 -5.21144 159.836 -7.02142 159.651C-10.3507 159.322 -13.1582 157.884 -15.5891 155.641C-17.9671 153.444 -20.0281 150.904 -21.8909 148.265C-26.9509 141.081 -30.6832 132.875 -32.5989 124.299C-33.4774 120.354 -33.3321 116.277 -32.8631 112.279C-32.546 109.555 -32.0638 106.843 -31.423 104.172C-31.39 104.033 -31.357 103.895 -31.3173 103.756C-31.0861 102.872 -32.4535 102.496 -32.6847 103.38C-33.2132 105.425 -33.5963 107.523 -33.92 109.614C-34.5409 113.658 -34.9373 117.834 -34.4485 121.917C-33.8936 126.561 -32.3016 131.186 -30.5114 135.487C-28.8138 139.571 -26.7528 143.502 -24.3284 147.197C-22.3599 150.192 -20.1668 153.081 -17.6434 155.627C-15.4239 157.87 -12.96 159.737 -9.85529 160.562C-6.4203 161.472 -2.37757 161.433 0.958331 160.113C2.14736 159.645 3.2373 159.005 3.71291 157.752C4.33385 156.102 3.79878 154.176 3.3562 152.547C3.10518 151.623 2.82114 150.699 2.61636 149.763C2.38516 148.714 2.40498 147.724 2.43801 146.649C2.52389 143.786 2.60976 140.916 2.72866 138.053C2.97308 132.274 3.343 126.502 4.07624 120.763C4.2612 119.325 4.46596 117.893 4.69716 116.462C4.84249 115.578 3.48171 115.195 3.33638 116.092Z" fill="#EDE3DF"/>
<path d="M9.16899 128.837C11.8179 138.746 14.4602 148.654 17.1091 158.563C18.0999 162.27 19.8703 168.188 15.5832 170.615C13.7732 171.638 11.514 171.44 9.57193 170.972C7.577 170.497 5.64153 169.738 3.80513 168.841C-0.462178 166.756 -4.22086 163.768 -7.23308 160.107C-7.81438 159.401 -8.80524 160.41 -8.23714 161.109C-5.40989 164.546 -1.90884 167.423 2.02157 169.52C3.98348 170.569 6.06429 171.44 8.19795 172.073C10.2259 172.674 12.4454 173.023 14.5262 172.529C19.1569 171.434 20.2138 166.499 19.5004 162.409C19.038 159.757 18.199 157.151 17.5054 154.552C16.7986 151.92 16.0984 149.281 15.3916 146.649C13.7732 140.586 12.1548 134.524 10.5364 128.468C10.2986 127.584 8.93118 127.953 9.16899 128.837Z" fill="#EDE3DF"/>
<path d="M17.644 170.088C18.8793 172.106 20.2136 174.349 20.1013 176.803C20.0154 178.71 18.9585 180.649 16.9834 181.098C15.0479 181.533 12.7425 181.032 10.8269 180.663C8.97066 180.3 7.14086 179.792 5.36391 179.152C-1.80332 176.559 -8.19767 171.737 -12.6962 165.595C-15.279 162.073 -17.2343 158.141 -18.4168 153.939C-18.6612 153.061 -20.0286 153.437 -19.7842 154.315C-17.5052 162.429 -12.4121 169.553 -5.73373 174.653C-2.39122 177.206 1.34101 179.238 5.31767 180.63C7.28618 181.322 9.32076 181.85 11.3818 182.193C13.4758 182.543 15.9793 183.037 18.0205 182.259C20.141 181.448 21.2838 179.31 21.4951 177.146C21.766 174.33 20.2797 171.691 18.866 169.375C18.3904 168.597 17.1684 169.309 17.644 170.088Z" fill="#EDE3DF"/>
<path d="M100.342 99.4416C100.203 103.809 99.8004 108.176 99.0276 112.477C98.4462 115.703 97.5941 118.955 96.0087 121.838C94.3771 124.807 91.9066 127.248 88.6169 128.283C84.6931 129.517 80.5183 128.877 76.6869 127.643C72.1158 126.179 67.7097 124.127 63.2773 122.293C62.4383 121.944 62.0684 123.316 62.9007 123.659C67.1482 125.414 71.3693 127.346 75.7291 128.818C79.6727 130.144 83.9334 130.896 88.0488 129.906C95.3878 128.145 98.7039 121.02 100.124 114.258C101.141 109.403 101.604 104.389 101.762 99.435C101.789 98.5312 100.375 98.5312 100.342 99.4416Z" fill="#EDE3DF"/>
<path d="M110.462 36.4544C115.991 41.2372 120.318 47.1546 124.024 53.415C125.867 56.5288 127.564 59.7283 129.202 62.9542C131.006 66.4901 132.776 70.059 134.243 73.7533C136.997 80.6932 138.728 88.2862 137.334 95.7407C136.673 99.2569 135.339 102.608 133.219 105.504C132.182 106.922 130.96 108.209 129.619 109.337C128.291 110.452 126.745 111.606 125.087 112.174C122.92 112.919 121.137 111.857 119.558 110.439C117.907 108.954 116.341 107.378 114.736 105.847C111.241 102.509 107.74 99.1645 104.246 95.8265C103.585 95.1998 102.588 96.1959 103.242 96.8292C106.498 99.9429 109.755 103.057 113.018 106.17C114.67 107.747 116.315 109.337 117.973 110.907C119.181 112.048 120.509 113.216 122.147 113.678C125.622 114.667 129.255 111.679 131.607 109.456C134.262 106.942 136.264 103.822 137.526 100.398C140.221 93.0888 139.448 84.9482 137.136 77.652C135.894 73.7401 134.236 69.9667 132.439 66.279C130.715 62.7299 128.912 59.2137 126.996 55.7701C122.848 48.2959 117.973 41.092 111.466 35.4583C110.772 34.8646 109.768 35.8541 110.462 36.4544Z" fill="#EDE3DF"/>
<path d="M142.512 79.0836C146.984 88.6425 149.904 98.8545 150.188 109.449C150.327 114.694 150.023 120.248 147.506 124.972C145.207 129.286 141.356 132.268 136.428 132.828C133.436 133.172 130.338 132.868 127.379 132.373C124.294 131.859 121.268 131.021 118.342 129.906C117.49 129.583 117.12 130.948 117.965 131.272C123.263 133.29 129.129 134.563 134.83 134.359C137.485 134.267 140.147 133.719 142.466 132.386C144.474 131.232 146.152 129.583 147.486 127.703C150.591 123.329 151.503 117.86 151.622 112.609C151.741 107.054 151.153 101.48 149.95 96.0574C148.59 89.9355 146.397 84.0444 143.741 78.3711C143.351 77.5465 142.129 78.259 142.512 79.0836Z" fill="#EDE3DF"/>
<path d="M136.64 100.431C137.532 106.012 137.01 111.804 135.088 117.121C134.229 119.503 132.782 122.128 130.107 122.755C127.445 123.382 125.153 121.231 123.838 119.173C122.213 116.633 121.117 113.717 119.862 110.986C119.485 110.162 118.263 110.881 118.64 111.699C119.908 114.469 121.011 117.431 122.682 119.991C124.142 122.227 126.454 124.332 129.301 124.272C132.102 124.206 134.289 122.095 135.497 119.74C136.911 117.003 137.677 113.836 138.107 110.801C138.615 107.226 138.576 103.624 138.001 100.055C137.862 99.1579 136.495 99.5405 136.64 100.431Z" fill="#EDE3DF"/>
<path d="M113.315 106.243C114.075 110.663 113.44 115.841 109.635 118.757C108.764 119.424 107.707 120.011 106.584 120.05C105.48 120.09 104.404 119.628 103.538 118.975C101.92 117.761 100.989 115.947 100.282 114.106C99.9581 113.262 98.5907 113.632 98.9144 114.483C100.163 117.755 102.666 121.673 106.696 121.455C110.679 121.244 113.599 117.101 114.53 113.592C115.198 111.065 115.118 108.427 114.676 105.867C114.524 104.976 113.163 105.352 113.315 106.243Z" fill="#EDE3DF"/>
<path d="M121.514 117.834C121.421 119.701 121.097 121.541 120.529 123.329C120.047 124.859 119.38 126.403 118.224 127.551C117.088 128.679 115.489 129.319 113.904 128.87C112.193 128.389 110.555 127.241 109.141 126.185C108.408 125.638 107.708 126.865 108.428 127.406C110.033 128.606 111.988 129.972 114.003 130.348C115.793 130.678 117.563 130.018 118.917 128.844C120.318 127.63 121.163 125.882 121.751 124.154C122.445 122.115 122.821 119.978 122.934 117.834C122.973 116.923 121.56 116.923 121.514 117.834Z" fill="#EDE3DF"/>
<path d="M107.727 121.238C107.991 123.83 107.522 126.383 107.053 128.923C106.624 131.278 106.095 133.6 104.774 135.632C103.585 137.466 101.934 138.964 100.256 140.342C98.5844 141.715 96.8735 143.1 95.0239 144.228C92.8704 145.547 90.598 146.148 88.0747 146.009C85.8617 145.89 83.6488 145.382 81.5284 144.749C77.7102 143.608 74.0969 141.82 70.8469 139.518C67.0948 136.859 63.858 133.488 61.3676 129.629C60.8788 128.864 59.6502 129.576 60.1456 130.341C64.8224 137.591 71.9897 143.1 80.1874 145.811C84.6066 147.269 89.7261 148.351 94.1255 146.319C96.2724 145.33 98.1286 143.806 99.9782 142.361C101.821 140.916 103.644 139.412 105.104 137.572C106.802 135.434 107.687 132.987 108.222 130.335C108.817 127.366 109.451 124.272 109.147 121.231C109.054 120.341 107.634 120.334 107.727 121.238Z" fill="#EDE3DF"/>
<path d="M98.6238 142.526C97.9566 145.785 96.9261 148.997 95.0699 151.781C93.4053 154.282 91.0867 156.294 88.4972 157.791C83.0871 160.918 76.4549 161.947 70.3182 160.859C66.586 160.199 63.0519 158.794 59.7953 156.874C59.0092 156.412 58.2958 157.633 59.0818 158.095C65.1393 161.664 72.1216 163.366 79.1369 162.389C85.3727 161.525 91.5821 158.662 95.4927 153.602C97.9038 150.488 99.2183 146.715 99.9978 142.889C100.17 142.011 98.8022 141.635 98.6238 142.526Z" fill="#EDE3DF"/>
<path d="M62.3521 133.99C61.9426 140.29 61.0046 146.55 59.5183 152.685C58.8115 155.621 58.032 158.583 57.0015 161.419C56.0503 164.025 54.6036 166.361 52.0009 167.561C46.8683 169.923 40.5862 167.436 35.8631 165.133C31.3514 162.937 27.2228 159.988 23.6623 156.445C19.6592 152.461 16.4224 147.757 14.1566 142.585C13.7933 141.754 12.5712 142.473 12.9346 143.298C17.1754 152.969 24.8645 161.07 34.2579 165.905C36.702 167.165 39.2783 168.234 41.9206 168.999C44.8403 169.85 47.9912 170.253 50.9638 169.428C53.5995 168.696 55.7332 167.033 57.0874 164.652C58.5737 162.04 59.3201 158.972 60.1062 156.096C62.0681 148.872 63.2835 141.451 63.7658 133.983C63.8252 133.079 62.4116 133.086 62.3521 133.99Z" fill="#EDE3DF"/>
<path d="M46.2671 168.32C41.4515 168.412 36.6359 168.049 31.8996 167.179C29.6206 166.763 27.3615 166.242 25.1419 165.595C23.1008 165.002 21.086 164.223 19.4676 162.805C18.7872 162.204 17.7832 163.201 18.4635 163.808C20.0621 165.206 21.9712 166.083 23.9859 166.723C26.3442 167.475 28.7817 168.03 31.2192 168.491C36.1801 169.428 41.2269 169.844 46.2737 169.745C47.1787 169.712 47.1853 168.3 46.2671 168.32Z" fill="#EDE3DF"/>
<path d="M81.8453 27.6476C92.0379 37.5561 99.6543 50.0242 103.862 63.594C105.031 67.3609 105.93 71.2135 106.557 75.1056C106.63 75.5542 107.31 75.3629 107.238 74.9209C104.946 60.8036 99.0466 47.3393 90.2874 36.0388C87.8499 32.8921 85.1944 29.9301 82.3407 27.1528C82.0236 26.8296 81.5216 27.3243 81.8453 27.6476Z" fill="#EDE3DF"/>
<path d="M96.2328 53.9494C98.8288 59.3655 100.764 65.085 101.973 70.9628C102.594 73.9842 103.024 77.0452 103.261 80.1193C103.453 82.6723 103.532 85.2649 103.123 87.8047C102.68 90.582 101.65 93.2405 99.5951 95.2196C99.2648 95.5363 99.7669 96.0376 100.097 95.721C103.796 92.1455 104.305 86.6766 104.074 81.8147C103.777 75.6004 102.634 69.4126 100.764 63.4819C99.6942 60.0977 98.3797 56.7927 96.8471 53.5932C96.6424 53.1842 96.0346 53.5404 96.2328 53.9494Z" fill="#EDE3DF"/>
<path d="M106.961 79.2551C107.298 82.7976 107.655 86.7426 105.944 90.0146C104.636 92.5148 100.93 94.5995 101.696 97.8187C101.802 98.2607 102.482 98.076 102.377 97.634C101.954 95.8595 103.328 94.4213 104.418 93.2009C105.468 92.0267 106.419 90.859 107.007 89.3747C108.276 86.1818 107.985 82.5997 107.668 79.2617C107.628 78.8065 106.921 78.7999 106.961 79.2551Z" fill="#EDE3DF"/>
<path d="M52.3048 34.3171C60.9451 40.0168 68.0991 47.8671 73.0138 56.9642C74.4076 59.5502 75.6164 62.2351 76.6337 64.9926C76.7923 65.4148 77.4727 65.2301 77.3141 64.8079C73.681 54.9522 67.5905 46.0463 59.7032 39.0932C57.4837 37.1339 55.132 35.3396 52.6615 33.7102C52.2784 33.4529 51.9282 34.0664 52.3048 34.3171Z" fill="#EDE3DF"/>
<path d="M66.7379 40.3268C71.1835 44.5752 74.7771 49.6284 77.3335 55.216C77.5251 55.6316 78.1328 55.2688 77.9478 54.8598C75.365 49.2194 71.7252 44.1134 67.2399 39.8254C66.9096 39.5088 66.4076 40.0101 66.7379 40.3268Z" fill="#EDE3DF"/>
<path d="M81.1978 65.0058C83.1729 70.3757 84.8706 75.8445 86.271 81.3925C86.3833 81.8345 87.0637 81.6498 86.9514 81.2078C85.551 75.6598 83.8533 70.1909 81.8782 64.8211C81.7263 64.3923 81.0393 64.577 81.1978 65.0058Z" fill="#EDE3DF"/>
<path d="M89.4228 59.88C90.592 64.0625 91.7678 68.2449 92.937 72.4273C93.0626 72.8627 93.7429 72.678 93.6174 72.2426C92.4482 68.0602 91.2724 63.8777 90.1032 59.6953C89.9843 59.2533 89.2973 59.438 89.4228 59.88Z" fill="#EDE3DF"/>
<path d="M109.339 38.1762C118.891 49.4965 126.065 62.7695 130.319 76.9462C131.508 80.9175 132.466 84.9548 133.199 89.0317C133.278 89.4803 133.959 89.289 133.879 88.847C131.25 74.1425 125.563 60.012 117.279 47.5768C114.987 44.1398 112.503 40.8348 109.841 37.6815C109.544 37.3318 109.048 37.8332 109.339 38.1762Z" fill="#EDE3DF"/>
<path d="M131.514 74.7164C135.716 84.6579 136.099 96.0178 132.631 106.23C132.485 106.659 133.166 106.85 133.311 106.414C136.845 96.0112 136.396 84.4732 132.122 74.3602C131.95 73.9446 131.336 74.3008 131.514 74.7164Z" fill="#EDE3DF"/>
<path d="M96.5238 36.7579C102.33 41.8573 106.664 48.4806 108.995 55.8427C109.134 56.2781 109.815 56.0934 109.676 55.658C107.311 48.1837 102.918 41.4417 97.0258 36.2631C96.6823 35.9597 96.1803 36.461 96.5238 36.7579Z" fill="#EDE3DF"/>
<path d="M104.952 38.605C110.164 43.0315 113.401 49.1468 116.38 55.1764C119.637 61.7535 122.94 68.39 124.935 75.4816C126.064 79.5058 126.725 83.6486 126.665 87.8376C126.659 88.2928 127.366 88.2928 127.372 87.8376C127.478 80.3567 125.291 73.1397 122.398 66.312C120.925 62.8354 119.274 59.4446 117.609 56.0604C116.09 52.973 114.564 49.8857 112.767 46.9501C110.759 43.6714 108.401 40.6039 105.461 38.1102C105.111 37.8134 104.602 38.3081 104.952 38.605Z" fill="#EDE3DF"/>
<path d="M135.431 104.073C136.224 108.888 135.266 113.876 132.776 118.078C132.545 118.467 133.152 118.823 133.39 118.434C135.98 114.06 136.937 108.895 136.112 103.881C136.039 103.433 135.359 103.624 135.431 104.073Z" fill="#EDE3DF"/>
<path d="M134.381 108.869C134.394 113.44 133.43 117.972 131.534 122.135C131.349 122.544 131.956 122.907 132.148 122.491C134.097 118.21 135.107 113.572 135.088 108.869C135.088 108.413 134.374 108.413 134.381 108.869Z" fill="#EDE3DF"/>
<path d="M132.406 107.417C132.928 110.735 132.564 114.139 131.402 117.286C131.243 117.715 131.93 117.9 132.082 117.471C133.291 114.199 133.628 110.67 133.086 107.226C133.02 106.784 132.333 106.975 132.406 107.417Z" fill="#EDE3DF"/>
<path d="M129.347 112.721C129.479 113.829 129.611 114.938 129.75 116.053C129.77 116.244 129.895 116.409 130.107 116.409C130.279 116.409 130.483 116.244 130.464 116.053C130.331 114.944 130.199 113.836 130.061 112.721C130.041 112.53 129.915 112.365 129.704 112.365C129.525 112.372 129.321 112.53 129.347 112.721Z" fill="#EDE3DF"/>
<path d="M138.569 77.652C144.362 85.1461 147.988 94.1838 148.946 103.598C148.993 104.046 149.699 104.053 149.653 103.598C148.682 94.0519 145.049 84.8888 139.176 77.2958C138.906 76.9396 138.291 77.2892 138.569 77.652Z" fill="#EDE3DF"/>
<path d="M139.877 83.5299C145.617 95.0876 151.318 107.998 148.22 121.165C148.114 121.607 148.801 121.798 148.9 121.35C151.311 111.118 148.445 100.695 144.336 91.301C143.134 88.5567 141.819 85.8586 140.485 83.1737C140.28 82.7647 139.672 83.1209 139.877 83.5299Z" fill="#EDE3DF"/>
<path d="M143.286 98.7357C145.994 104.224 147.342 110.485 147.817 116.561C148.247 121.97 147.15 128.468 141.694 131.041C141.284 131.232 141.641 131.846 142.051 131.654C145.935 129.82 147.969 125.697 148.471 121.607C148.788 119.015 148.57 116.396 148.22 113.816C147.89 111.349 147.454 108.895 146.84 106.487C146.133 103.697 145.168 100.972 143.894 98.3927C143.695 97.9705 143.088 98.3267 143.286 98.7357Z" fill="#EDE3DF"/>
<path d="M14.9893 180.445C10.2464 178.855 5.99232 176.018 2.68945 172.271C2.38559 171.928 1.89015 172.43 2.18741 172.773C5.57616 176.619 9.94256 179.502 14.8044 181.131C15.2338 181.269 15.4187 180.59 14.9893 180.445Z" fill="#EDE3DF"/>
<path d="M9.96873 180.102C1.25575 174.112 -6.36727 166.591 -12.4644 157.963C-12.722 157.593 -13.3363 157.949 -13.0787 158.319C-6.90233 167.053 0.786741 174.653 9.61201 180.715C9.98854 180.973 10.3386 180.359 9.96873 180.102Z" fill="#EDE3DF"/>
<path d="M5.43064 178.426C-1.294 173.802 -7.06742 167.884 -11.5197 161.05C-11.7641 160.667 -12.3784 161.024 -12.134 161.406C-7.60909 168.346 -1.75641 174.343 5.07393 179.04C5.45045 179.297 5.80056 178.683 5.43064 178.426Z" fill="#EDE3DF"/>
<path d="M5.31182 119.767C4.0237 131.819 4.50592 144.017 6.73205 155.931C6.81793 156.379 7.49832 156.188 7.41244 155.746C5.19952 143.898 4.7305 131.76 6.01862 119.773C6.07147 119.311 5.36467 119.318 5.31182 119.767Z" fill="#EDE3DF"/>
<path d="M6.62564 127.676C6.16324 138.779 7.19374 149.921 9.6709 160.753C9.76998 161.195 10.457 161.01 10.3513 160.568C7.88074 149.796 6.86344 138.726 7.32585 127.676C7.35227 127.221 6.64546 127.221 6.62564 127.676Z" fill="#EDE3DF"/>
<path d="M8.70674 135.421C9.65136 143.232 11.4547 150.911 14.1036 158.325C14.2556 158.748 14.9426 158.57 14.784 158.141C12.1549 150.792 10.345 143.172 9.41356 135.428C9.36071 134.979 8.64729 134.972 8.70674 135.421Z" fill="#EDE3DF"/>
<path d="M8.25085 127.215C9.94192 137.849 12.5248 148.331 15.9664 158.53C16.1117 158.959 16.7921 158.774 16.6468 158.345C13.2052 148.14 10.6223 137.664 8.93124 127.03C8.85858 126.575 8.17819 126.766 8.25085 127.215Z" fill="#EDE3DF"/>
<path d="M29.7597 150.864C27.8309 149.848 26.1992 148.344 25.0432 146.497C24.8054 146.115 24.1911 146.464 24.4289 146.853C25.6444 148.8 27.3685 150.409 29.3964 151.478C29.806 151.682 30.1627 151.076 29.7597 150.864Z" fill="#EDE3DF"/>
<path d="M29.918 153.213C24.3757 149.532 19.8574 144.465 16.8254 138.548C16.6206 138.146 16.0063 138.502 16.211 138.904C19.2959 144.927 23.9133 150.079 29.5612 153.826C29.9378 154.07 30.2945 153.464 29.918 153.213Z" fill="#EDE3DF"/>
<path d="M28.3523 155.555C21.1256 148.905 15.2597 140.877 11.1047 131.984C10.9131 131.575 10.2988 131.931 10.4904 132.34C14.6652 141.286 20.584 149.367 27.8503 156.056C28.1872 156.366 28.6892 155.865 28.3523 155.555Z" fill="#EDE3DF"/>
<path d="M29.3237 158.583C21.879 152.355 15.914 144.492 11.9307 135.652C11.7458 135.236 11.1315 135.599 11.3164 136.008C15.3261 144.901 21.3373 152.824 28.8216 159.084C29.1717 159.374 29.6738 158.873 29.3237 158.583Z" fill="#EDE3DF"/>
<path d="M23.5633 156.155C19.8046 152.751 16.8056 148.602 14.7578 143.971C14.5728 143.555 13.9651 143.918 14.1435 144.327C16.2177 149.004 19.2629 153.213 23.0612 156.656C23.3981 156.96 23.9001 156.465 23.5633 156.155Z" fill="#EDE3DF"/>
<path d="M29.3429 163.59C23.4373 160.041 18.6878 154.796 15.7218 148.582C15.5236 148.173 14.9159 148.529 15.1075 148.938C18.1197 155.258 22.9815 160.595 28.9861 164.203C29.3825 164.434 29.7326 163.827 29.3429 163.59Z" fill="#EDE3DF"/>
<path d="M25.6569 162.231C21.9908 159.803 18.9984 156.465 16.977 152.566C16.7656 152.164 16.1579 152.52 16.3627 152.923C18.4435 156.927 21.535 160.344 25.3002 162.838C25.6834 163.088 26.0401 162.482 25.6569 162.231Z" fill="#EDE3DF"/>
<path d="M23.405 162.673C21.1987 161.287 19.3689 159.368 18.0808 157.105C17.8562 156.709 17.2418 157.065 17.4664 157.461C18.814 159.83 20.7429 161.828 23.0483 163.28C23.4314 163.524 23.7881 162.91 23.405 162.673Z" fill="#EDE3DF"/>
<path d="M21.7797 163.458C20.5774 162.323 19.3752 161.182 18.1729 160.047C17.8427 159.737 17.3406 160.232 17.6709 160.549C18.8731 161.683 20.0754 162.825 21.2776 163.959C21.6079 164.276 22.11 163.775 21.7797 163.458Z" fill="#EDE3DF"/>
<path d="M0.12627 111.349C-0.336132 113.605 -0.80515 115.861 -1.26755 118.117C-1.36003 118.559 -0.679642 118.751 -0.587161 118.302C-0.124759 116.046 0.344259 113.79 0.806661 111.534C0.905747 111.092 0.218751 110.907 0.12627 111.349Z" fill="#EDE3DF"/>
<path d="M11.5408 94.5929C9.67803 91.9475 8.52862 88.8602 8.25118 85.6343C8.21154 85.1857 7.50474 85.1791 7.54438 85.6343C7.83503 88.9789 8.99103 92.2048 10.9265 94.9491C11.1907 95.3185 11.8051 94.9689 11.5408 94.5929Z" fill="#EDE3DF"/>
<path d="M9.21533 96.1761C7.3327 90.9382 5.79355 85.5881 4.60452 80.1457C4.50543 79.7037 3.82504 79.8884 3.92413 80.3304C5.11316 85.7662 6.65891 91.1163 8.53494 96.3608C8.68687 96.7896 9.36727 96.6049 9.21533 96.1761Z" fill="#EDE3DF"/>
<path d="M6.2495 97.4164C4.88871 95.3779 4.09603 93.0162 3.96392 90.5754C3.93749 90.1202 3.23067 90.1202 3.2571 90.5754C3.39582 93.1416 4.20833 95.6352 5.63517 97.7726C5.88619 98.1486 6.50051 97.7924 6.2495 97.4164Z" fill="#EDE3DF"/>
<path d="M61.5861 20.6549C70.3387 27.1792 78.1533 34.9504 84.7062 43.6715C86.5426 46.1189 88.2799 48.6389 89.9181 51.2249C90.1625 51.6075 90.7769 51.2513 90.5325 50.8687C84.6401 41.5737 77.4333 33.1296 69.1563 25.8731C66.8311 23.8346 64.42 21.8951 61.9428 20.048C61.5795 19.7709 61.2294 20.3844 61.5861 20.6549Z" fill="#EDE3DF"/>
<path d="M115.608 108.037C116.03 110.617 116.46 113.196 116.883 115.775C116.955 116.224 117.636 116.033 117.563 115.591C117.14 113.011 116.711 110.432 116.288 107.853C116.215 107.397 115.535 107.589 115.608 108.037Z" fill="#EDE3DF"/>
<path d="M115.561 115.907C115.865 118.137 116.162 120.36 116.466 122.59C116.526 123.039 117.206 122.847 117.147 122.405C116.843 120.176 116.546 117.952 116.242 115.723C116.182 115.268 115.502 115.459 115.561 115.907Z" fill="#EDE3DF"/>
<path d="M113.87 116.752C114.564 118.216 114.98 119.8 115.106 121.409C115.139 121.858 115.845 121.864 115.812 121.409C115.68 119.668 115.231 117.972 114.485 116.396C114.286 115.98 113.672 116.343 113.87 116.752Z" fill="#EDE3DF"/>
<path d="M118.666 114.925C119.604 118.645 119.782 122.518 119.174 126.311C119.102 126.753 119.782 126.951 119.855 126.495C120.482 122.577 120.31 118.586 119.346 114.733C119.234 114.298 118.553 114.483 118.666 114.925Z" fill="#EDE3DF"/>
<path d="M117.642 119.668C118.249 120.769 118.507 122.023 118.401 123.276C118.388 123.467 118.573 123.632 118.758 123.632C118.963 123.632 119.095 123.467 119.115 123.276C119.227 121.904 118.923 120.519 118.256 119.311C118.031 118.909 117.417 119.265 117.642 119.668Z" fill="#EDE3DF"/>
<path d="M185.965 77.7114C184.783 69.142 180.489 61.1268 174.009 55.3809C173.672 55.0775 173.17 55.5788 173.507 55.8823C179.908 61.5556 184.115 69.4323 185.285 77.9027C185.344 78.3447 186.025 78.1534 185.965 77.7114Z" fill="#EDE3DF"/>
<path d="M183.541 75.7785C176.962 63.5677 167.773 52.8213 156.748 44.3905C153.637 42.009 150.38 39.8255 146.998 37.8332C146.602 37.6023 146.245 38.2092 146.641 38.4467C158.531 45.446 168.883 54.9851 176.823 66.2592C179.056 69.4257 181.09 72.7242 182.927 76.1348C183.144 76.5372 183.759 76.1809 183.541 75.7785Z" fill="#EDE3DF"/>
<path d="M168.519 62.6112C162.079 55.1105 154.601 48.5334 146.337 43.0975C145.954 42.8469 145.597 43.4604 145.98 43.711C154.198 49.1139 161.616 55.6514 168.024 63.1125C168.314 63.4556 168.81 62.9542 168.519 62.6112Z" fill="#EDE3DF"/>
<path d="M150.836 48.7114C144.633 44.6478 138.245 40.8743 131.699 37.4044C131.296 37.1933 130.939 37.8002 131.342 38.0179C137.895 41.4944 144.276 45.2679 150.479 49.325C150.862 49.569 151.219 48.9555 150.836 48.7114Z" fill="#EDE3DF"/>
<path d="M145.597 47.7681C139.738 44.6148 133.872 41.4615 128.013 38.3081C127.61 38.0904 127.253 38.704 127.656 38.9216C133.516 42.075 139.381 45.2283 145.241 48.3816C145.644 48.5993 146 47.9858 145.597 47.7681Z" fill="#EDE3DF"/>
<path d="M135.425 44.1794C130.187 41.6528 124.949 39.1328 119.71 36.6062C119.301 36.4083 118.944 37.0218 119.353 37.2197C124.592 39.7463 129.83 42.2663 135.068 44.7929C135.478 44.9842 135.835 44.3773 135.425 44.1794Z" fill="#EDE3DF"/>
<path d="M137.076 48.6389C128.33 44.2058 119.591 39.7727 110.845 35.3396C110.442 35.1351 110.078 35.742 110.488 35.9531C119.234 40.3862 127.973 44.8193 136.719 49.2525C137.122 49.457 137.479 48.85 137.076 48.6389Z" fill="#EDE3DF"/>
<path d="M140.63 36.5732C134.249 32.0477 126.804 29.1979 119.043 28.2677C118.593 28.2149 118.593 28.9208 119.043 28.9736C126.679 29.8971 134.005 32.7404 140.273 37.1867C140.643 37.4506 141 36.8371 140.63 36.5732Z" fill="#EDE3DF"/>
<path d="M129.493 34.2445C122.504 31.3749 115.277 29.1385 107.892 27.5486C107.45 27.4563 107.258 28.1358 107.707 28.2281C115.092 29.818 122.319 32.0543 129.308 34.924C129.724 35.1021 129.909 34.416 129.493 34.2445Z" fill="#EDE3DF"/>
<path d="M122.741 35.5045C114.834 32.1005 106.855 28.8746 98.8088 25.8137C98.3794 25.6488 98.2011 26.3348 98.6239 26.4932C106.617 29.5277 114.537 32.7338 122.391 36.1114C122.794 36.2961 123.158 35.6892 122.741 35.5045Z" fill="#EDE3DF"/>
<path d="M118.58 36.6193C111.664 32.9911 104.754 29.3628 97.8378 25.7345C97.4349 25.5234 97.0782 26.1303 97.4811 26.348C104.397 29.9763 111.307 33.6046 118.223 37.2329C118.626 37.4374 118.983 36.8304 118.58 36.6193Z" fill="#EDE3DF"/>
<path d="M25.0366 26.0445C27.5006 36.2235 27.0183 47.0358 23.7155 56.9773C22.7708 59.8272 21.5818 62.5913 20.188 65.2499C19.9766 65.6523 20.5843 66.0085 20.8023 65.6061C25.75 56.1791 27.963 45.3932 27.1438 34.7788C26.9126 31.7706 26.4304 28.7822 25.7236 25.8532C25.6113 25.4112 24.9309 25.6025 25.0366 26.0445Z" fill="#EDE3DF"/>
<path d="M21.0928 52.0099C18.5628 58.6332 16.0328 65.2565 13.4962 71.8732C13.3311 72.2954 14.018 72.4801 14.1766 72.0579C16.7066 65.4346 19.2366 58.8113 21.7732 52.1946C21.9383 51.7724 21.2579 51.5877 21.0928 52.0099Z" fill="#EDE3DF"/>
<path d="M19.5207 24.3689C20.6106 25.9192 20.7163 28.1753 20.9541 30.0093C21.2051 31.9488 21.3505 33.8948 21.4033 35.8475C21.5156 39.8254 21.2117 43.81 20.5181 47.7285C20.4389 48.1705 21.1193 48.3618 21.1985 47.9132C21.9186 43.8298 22.2356 39.6737 22.1035 35.5243C22.0375 33.5056 21.8657 31.487 21.5949 29.4881C21.3505 27.674 21.2184 25.5564 20.135 24.0127C19.8708 23.6433 19.2564 23.9929 19.5207 24.3689Z" fill="#EDE3DF"/>
<path d="M15.4709 28.1424C15.7087 31.3749 15.9531 34.6007 16.1909 37.8332C16.4353 41.1053 16.7656 44.3905 16.6335 47.6758C16.3758 54.055 13.6609 59.8141 10.8997 65.4544C10.7015 65.8634 11.3092 66.2196 11.514 65.8106C14.229 60.2627 16.9307 54.5761 17.3139 48.3157C17.5186 44.9842 17.1883 41.6396 16.9439 38.3148C16.6929 34.924 16.4419 31.5332 16.1909 28.1424C16.1513 27.6938 15.4378 27.6872 15.4709 28.1424Z" fill="#EDE3DF"/>
<path d="M14.6391 62.0504C13.6086 65.3621 12.5781 68.6671 11.5542 71.9787C11.4155 72.4141 12.1025 72.5989 12.2346 72.1635C13.2651 68.8518 14.2956 65.5468 15.3195 62.2351C15.4582 61.7997 14.7712 61.615 14.6391 62.0504Z" fill="#EDE3DF"/>
<path d="M12.0695 75.0331C11.66 76.5834 11.2504 78.1336 10.8409 79.6839C10.7219 80.1259 11.4089 80.3106 11.5212 79.8686C11.9308 78.3183 12.3403 76.7681 12.7499 75.2178C12.8688 74.7824 12.1818 74.5911 12.0695 75.0331Z" fill="#EDE3DF"/>
<path d="M63.9238 109.97C63.4151 109.152 63.1311 108.215 63.1046 107.252C63.0914 106.797 62.3846 106.797 62.3978 107.252C62.4309 108.341 62.7413 109.403 63.316 110.326C63.5472 110.716 64.1616 110.359 63.9238 109.97Z" fill="#EDE3DF"/>
<path d="M64.0106 114.865C62.5441 111.54 61.0842 108.215 59.6178 104.884C59.4328 104.468 58.8251 104.825 59.0034 105.24C60.4699 108.565 61.9298 111.89 63.3962 115.221C63.5812 115.637 64.1889 115.274 64.0106 114.865Z" fill="#EDE3DF"/>
<path d="M61.744 118.322C59.4981 113.836 57.2521 109.344 55.0062 104.858C54.8014 104.449 54.1937 104.811 54.3918 105.214C56.6378 109.7 58.8837 114.192 61.1297 118.678C61.3345 119.087 61.9422 118.731 61.744 118.322Z" fill="#EDE3DF"/>
<path d="M55.4162 112.061C52.8862 106.863 50.2637 101.718 47.5422 96.6181C47.3308 96.2157 46.7165 96.572 46.9278 96.9744C49.6494 102.074 52.2719 107.219 54.8019 112.418C55 112.833 55.6144 112.47 55.4162 112.061Z" fill="#EDE3DF"/>
<path d="M51.1751 110.234C47.6146 102.489 44.0475 94.7446 40.487 87.0065C40.2954 86.5909 39.6877 86.9537 39.8726 87.3627C43.4331 95.1074 47.0002 102.852 50.5607 110.59C50.7589 110.999 51.3666 110.643 51.1751 110.234Z" fill="#EDE3DF"/>
<path d="M45.5409 108.585C39.054 95.5692 33.9214 81.8938 30.2618 67.8227C29.2247 63.8447 28.3131 59.8338 27.5072 55.8031C27.4213 55.3545 26.7343 55.5458 26.8268 55.9878C29.6607 70.2569 33.9742 84.2226 39.6882 97.6077C41.3198 101.434 43.0703 105.214 44.9331 108.941C45.1313 109.35 45.7391 108.987 45.5409 108.585Z" fill="#EDE3DF"/>
<path d="M31.7542 87.6925C30.4991 83.4045 29.3761 79.077 28.3918 74.723C27.9096 72.5988 27.4604 70.4614 27.0443 68.3241C26.8329 67.229 26.6281 66.1273 26.4299 65.0322C26.3771 64.7221 25.7165 61.7601 26.3639 61.8723C26.8065 61.9514 26.998 61.272 26.5488 61.1928C24.6662 60.863 25.5448 64.0756 25.6901 64.9069C26.1459 67.4731 26.6479 70.0326 27.1962 72.5791C28.306 77.7246 29.6007 82.8306 31.0738 87.8838C31.1993 88.3192 31.8797 88.1345 31.7542 87.6925Z" fill="#EDE3DF"/>
<path d="M35.189 96.2289C34.3765 95.3251 33.7886 94.2366 33.4715 93.0624C33.3526 92.6204 32.6722 92.8117 32.7911 93.2471C33.1346 94.5401 33.7952 95.7341 34.6869 96.7303C34.9908 97.0667 35.4928 96.5653 35.189 96.2289Z" fill="#EDE3DF"/>
<path d="M29.8183 126.891C28.1206 125.064 26.7599 122.94 25.8284 120.631C25.6633 120.215 24.9763 120.393 25.1481 120.816C26.1323 123.243 27.5393 125.466 29.3229 127.393C29.6267 127.722 30.1288 127.228 29.8183 126.891Z" fill="#EDE3DF"/>
<path d="M26.2452 126.773C19.4743 118.131 15.1607 107.655 13.8792 96.7633C13.8264 96.3147 13.1196 96.3147 13.1724 96.7633C14.4803 107.866 18.8467 118.467 25.7431 127.274C26.0206 127.63 26.5226 127.129 26.2452 126.773Z" fill="#EDE3DF"/>
<path d="M31.6679 135.309C31.2121 135.309 31.2121 136.015 31.6679 136.015C32.1237 136.021 32.1237 135.309 31.6679 135.309Z" fill="#EDE3DF"/>
<path d="M29.1053 137.677C29.6998 137.314 30.7633 138.489 31.4437 138.541C31.9722 138.581 32.3421 138.376 32.5336 137.882C32.5799 137.77 32.527 137.618 32.4412 137.539C26.1327 131.641 20.8415 124.734 16.7856 117.115C16.5742 116.712 15.9598 117.068 16.1712 117.471C20.2536 125.143 25.591 132.103 31.9391 138.04C31.9061 137.928 31.8797 137.809 31.8466 137.697C31.6154 138.291 30.2943 137.169 30.0433 137.05C29.5875 136.833 29.1779 136.8 28.742 137.07C28.3588 137.301 28.7155 137.915 29.1053 137.677Z" fill="#EDE3DF"/>
<path d="M20.4053 129.141C14.8234 120.69 9.34065 111.613 8.28373 101.328C8.23749 100.88 7.53067 100.873 7.57691 101.328C8.64704 111.751 14.1364 120.928 19.7975 129.497C20.0485 129.88 20.6563 129.523 20.4053 129.141Z" fill="#EDE3DF"/>
<path d="M13.5754 121.805C10.4377 116.534 7.79537 110.986 5.68153 105.234C5.523 104.811 4.8426 104.996 5.00114 105.418C7.1348 111.23 9.79691 116.838 12.9677 122.161C13.1989 122.557 13.8066 122.201 13.5754 121.805Z" fill="#EDE3DF"/>
<path d="M11.2697 121.99C8.99075 117.24 6.71838 112.497 4.4394 107.747C4.24123 107.338 3.6335 107.694 3.82507 108.103C6.10405 112.853 8.37642 117.596 10.6554 122.346C10.8536 122.755 11.4679 122.399 11.2697 121.99Z" fill="#EDE3DF"/>
<path d="M5.0865 113.618C4.53162 112.358 3.97672 111.092 3.42184 109.832C3.34257 109.66 3.09156 109.614 2.93963 109.706C2.76128 109.812 2.73485 110.016 2.81412 110.188C3.369 111.448 3.92388 112.715 4.47876 113.975C4.55803 114.146 4.80905 114.192 4.96099 114.1C5.13934 113.994 5.16577 113.796 5.0865 113.618Z" fill="#EDE3DF"/>
<path d="M14.5401 23.1947C11.9309 20.3976 9.75097 17.2245 8.07311 13.7809C7.87494 13.3719 7.26061 13.7281 7.45878 14.1371C9.16306 17.6269 11.3826 20.8528 14.0315 23.696C14.3486 24.0325 14.8506 23.5311 14.5401 23.1947Z" fill="#EDE3DF"/>
<path d="M10.2129 21.3344C6.81756 17.4092 4.00351 13.0223 1.83683 8.31209C1.64526 7.89648 1.03754 8.25932 1.2225 8.66833C3.409 13.4379 6.26929 17.871 9.70427 21.8357C10.0081 22.1788 10.5102 21.6774 10.2129 21.3344Z" fill="#EDE3DF"/>
<path d="M0.561709 13.4247C-3.80469 4.27478 -8.45512 -5.73272 -6.34789 -16.1228C-6.25541 -16.5648 -6.94243 -16.7561 -7.0283 -16.3075C-9.17517 -5.70633 -4.5049 4.44629 -0.0460279 13.7875C0.145539 14.1899 0.759881 13.8337 0.561709 13.4247Z" fill="#EDE3DF"/>
<path d="M56.1756 -10.9244C57.8204 -7.28953 58.5074 -3.29182 58.2035 0.679513C58.1705 1.1347 58.8773 1.1281 58.9104 0.679513C59.2208 -3.42376 58.481 -7.53363 56.7833 -11.2807C56.5983 -11.6963 55.9906 -11.3334 56.1756 -10.9244Z" fill="#EDE3DF"/>
<path d="M48.4539 -12.0459C50.6734 -7.95587 52.2522 -3.55574 53.1373 1.00931C53.2232 1.4579 53.9036 1.26659 53.8177 0.824602C52.9193 -3.79982 51.3141 -8.25933 49.0616 -12.3956C48.8502 -12.8046 48.2359 -12.4484 48.4539 -12.0459Z" fill="#EDE3DF"/>
<path d="M36.4902 22.7659C33.4978 15.5291 29.9836 8.52318 25.9673 1.80095C25.7361 1.41173 25.1218 1.76795 25.353 2.15717C29.3362 8.82663 32.8307 15.7798 35.8033 22.9506C35.9816 23.3728 36.6686 23.1881 36.4902 22.7659Z" fill="#EDE3DF"/>
<path d="M69.0174 106.058C62.1474 99.6593 56.2286 92.3103 51.4461 84.2358C51.2149 83.8465 50.6006 84.2028 50.8318 84.592C55.6407 92.7128 61.6057 100.121 68.5153 106.56C68.8522 106.87 69.3542 106.375 69.0174 106.058Z" fill="#EDE3DF"/>
<path d="M60.952 100.51C49.7883 88.6689 40.8705 74.7494 34.8197 59.6491C33.1286 55.4337 31.6687 51.1325 30.4335 46.7654C30.3146 46.3366 29.6408 46.5213 29.7597 46.9501C34.2185 62.6771 41.65 77.5267 51.5718 90.5226C54.3528 94.1641 57.3188 97.6604 60.4632 100.998C60.767 101.328 61.2558 100.84 60.952 100.51Z" fill="#EDE3DF"/>
<path d="M46.3598 85.9707C41.9538 80.4359 38.2942 74.3404 35.4603 67.8622C35.2754 67.4466 34.6676 67.8029 34.846 68.2185C37.7063 74.756 41.4055 80.8845 45.8512 86.4721C46.1418 86.8283 46.6372 86.3204 46.3598 85.9707Z" fill="#EDE3DF"/>
<path d="M55.5283 82.3359C50.6467 76.115 46.7493 69.1619 43.9815 61.7602C43.8229 61.338 43.1359 61.5227 43.3011 61.9449C46.1151 69.4719 50.072 76.5108 55.0329 82.8306C55.3037 83.1935 55.8058 82.6921 55.5283 82.3359Z" fill="#EDE3DF"/>
<path d="M39.8525 62.2549C34.9378 52.9335 31.9851 42.6424 31.2056 32.1335C31.1726 31.6849 30.4658 31.6783 30.4988 32.1335C31.2849 42.7743 34.2641 53.171 39.2382 62.6112C39.4562 63.0136 40.0639 62.6573 39.8525 62.2549Z" fill="#EDE3DF"/>
<path d="M60.6416 74.9077C52.86 63.1257 46.0825 50.6905 40.4082 37.7672C38.7568 34.007 37.211 30.2072 35.7512 26.3744C35.5926 25.9522 34.9056 26.1369 35.0708 26.5591C40.144 39.8716 46.3402 52.7554 53.6065 65.0124C55.6609 68.4824 57.8077 71.8995 60.0339 75.264C60.2849 75.64 60.8926 75.2904 60.6416 74.9077Z" fill="#EDE3DF"/>
<path d="M43.8886 54.3188C38.7163 45.7165 34.6604 36.4874 31.8133 26.8626C31.6878 26.4272 31.0008 26.6119 31.1329 27.0473C33.9932 36.7249 38.0822 46.0199 43.2809 54.6751C43.5121 55.0643 44.1264 54.7081 43.8886 54.3188Z" fill="#EDE3DF"/>
<path d="M105.229 36.7513C101.107 32.2324 96.3777 28.2941 91.1856 25.055C90.7959 24.8109 90.4392 25.4244 90.8289 25.6685C95.9748 28.8746 100.652 32.7734 104.734 37.2527C105.038 37.5891 105.54 37.0877 105.229 36.7513Z" fill="#EDE3DF"/>
<path d="M102.64 36.7117C96.3249 31.3352 89.3624 26.7504 81.9244 23.0759C81.5148 22.878 81.1581 23.4849 81.5677 23.6894C88.9529 27.3375 95.8691 31.8762 102.145 37.2131C102.488 37.5033 102.99 37.0086 102.64 36.7117Z" fill="#EDE3DF"/>
<path d="M95.2683 34.5281C91.7673 31.6585 88.0879 29.0065 84.2565 26.5921C83.8668 26.348 83.5167 26.9615 83.8998 27.2056C87.6849 29.5871 91.3115 32.1994 94.7663 35.0361C95.123 35.3132 95.625 34.8184 95.2683 34.5281Z" fill="#EDE3DF"/>
<path d="M155.175 64.8805C164.721 71.3257 171.26 81.7949 173.209 93.102C173.764 96.3213 173.923 99.5933 173.698 102.852C173.665 103.307 174.372 103.307 174.405 102.852C175.204 91.1493 170.877 79.3277 162.97 70.6857C160.751 68.2581 158.247 66.1075 155.526 64.267C155.156 64.0163 154.799 64.6298 155.175 64.8805Z" fill="#EDE3DF"/>
<path d="M171.195 93.4516C170.098 88.0817 168.004 82.9625 165.018 78.3579C164.774 77.9753 164.159 78.3315 164.404 78.7142C167.357 83.266 169.424 88.3192 170.508 93.6363C170.607 94.0849 171.287 93.8936 171.195 93.4516Z" fill="#EDE3DF"/>
<path d="M162.145 74.2613C160.778 71.7281 159.041 69.4125 156.999 67.3807C156.676 67.0575 156.174 67.5588 156.497 67.8821C158.499 69.8743 160.19 72.1371 161.531 74.6175C161.749 75.0199 162.363 74.6637 162.145 74.2613Z" fill="#EDE3DF"/>
<path d="M168.09 90.5424C164.82 83.7871 160.962 77.2364 156.378 71.2794C154.218 68.4692 151.84 65.8436 149.177 63.5017C146.304 60.9817 143.246 58.6662 140.247 56.2979C136.679 53.4744 133.106 50.6443 129.539 47.8209C129.188 47.5438 128.68 48.0386 129.037 48.3222C135.16 53.1709 141.409 57.8943 147.401 62.9146C153.088 67.6775 157.481 73.5554 161.378 79.8224C163.611 83.4045 165.639 87.112 167.482 90.9118C167.68 91.3076 168.288 90.9514 168.09 90.5424Z" fill="#EDE3DF"/>
<path d="M155.143 74.3602C147.817 65.6589 139.858 57.4919 131.329 49.9649C128.912 47.8341 126.454 45.7494 123.951 43.7242C123.601 43.4405 123.099 43.9353 123.449 44.2256C132.281 51.3964 140.591 59.2137 148.267 67.605C150.44 69.9798 152.567 72.4009 154.641 74.8681C154.938 75.2112 155.434 74.7032 155.143 74.3602Z" fill="#EDE3DF"/>
<path d="M152.434 76.5042C144.144 68.0733 135.94 59.5502 127.834 50.9412C127.524 50.6114 127.022 51.1127 127.332 51.4426C135.438 60.0515 143.635 68.5747 151.932 77.0055C152.249 77.3288 152.751 76.8274 152.434 76.5042Z" fill="#EDE3DF"/>
<path d="M126.104 48.5004C123.752 46.2442 121.401 43.9881 119.042 41.732C118.712 41.4153 118.21 41.9167 118.54 42.2333C120.892 44.4895 123.244 46.7456 125.602 49.0017C125.932 49.3184 126.434 48.817 126.104 48.5004Z" fill="#EDE3DF"/>
<path d="M144.739 76.0688C140.095 70.9892 135.709 65.6853 131.6 60.1703C131.33 59.8074 130.715 60.1637 130.986 60.5265C135.135 66.0877 139.554 71.4443 144.237 76.5635C144.548 76.9066 145.05 76.4052 144.739 76.0688Z" fill="#EDE3DF"/>
<path d="M139.586 32.4501C133.271 27.7663 125.582 25.7015 117.986 24.138C114.101 23.3398 110.197 22.6603 106.333 21.7895C102.046 20.8264 97.8182 19.5928 93.6896 18.0887C88.9797 16.3669 84.4086 14.2955 80.0025 11.9008C79.5996 11.6831 79.2429 12.2966 79.6458 12.5143C87.3349 16.6967 95.5525 19.9028 104.061 21.9874C111.803 23.8873 119.789 24.8043 127.399 27.232C131.613 28.5777 135.663 30.4183 139.223 33.0636C139.6 33.3341 139.95 32.7206 139.586 32.4501Z" fill="#EDE3DF"/>
<path d="M106.406 23.8082C92.6327 21.8159 79.4675 16.0767 68.6209 7.36875C65.569 4.9213 62.7153 2.23635 60.0664 -0.646491C59.7559 -0.982932 59.2605 -0.481562 59.5644 -0.14512C68.9908 10.1262 81.185 17.7654 94.5154 21.8687C98.3401 23.043 102.257 23.9204 106.221 24.4943C106.663 24.5537 106.855 23.8676 106.406 23.8082Z" fill="#EDE3DF"/>
<path d="M90.4925 22.027C80.8745 20.5625 73.159 14.0909 65.8663 8.13395C63.4155 6.13509 60.9714 4.13623 58.5207 2.13737C58.1706 1.8537 57.6685 2.34848 58.0186 2.63874C62.1736 6.03614 66.289 9.49293 70.5233 12.7914C74.315 15.7468 78.2983 18.5439 82.7175 20.4701C85.1418 21.5322 87.6718 22.3041 90.2943 22.7065C90.7501 22.7725 90.9417 22.093 90.4925 22.027Z" fill="#EDE3DF"/>
<path d="M67.9269 12.0459C64.2079 9.56549 60.6342 6.88054 57.219 3.9977C56.8755 3.70744 56.3669 4.20221 56.717 4.49907C60.1784 7.42149 63.7983 10.146 67.5636 12.6594C67.9467 12.9101 68.3035 12.2966 67.9269 12.0459Z" fill="#EDE3DF"/>
<path d="M97.5407 15.0673C89.4223 12.9497 81.7927 9.22904 75.1209 4.14283C74.7575 3.86576 74.4074 4.47927 74.7641 4.75634C81.4756 9.87553 89.1779 13.6226 97.3492 15.7468C97.7918 15.8589 97.9833 15.1794 97.5407 15.0673Z" fill="#EDE3DF"/>
<path d="M69.671 0.0593521C69.6116 0.0395614 69.5521 0.0197732 69.4927 -1.752e-05C69.4662 -0.0132113 69.4332 -0.0198002 69.4068 -0.0329939C69.453 -0.0132033 69.42 -0.0264035 69.3936 -0.0395973C69.2879 -0.0857755 69.1822 -0.145148 69.0765 -0.20452C68.9774 -0.263892 68.8783 -0.336449 68.7792 -0.402418C68.7462 -0.428806 68.8189 -0.369447 68.766 -0.415625C68.7396 -0.435416 68.7198 -0.455204 68.6934 -0.474995C68.6471 -0.514576 68.6009 -0.554159 68.5546 -0.600337C68.4754 -0.6795 68.3961 -0.75866 68.3168 -0.844419C68.297 -0.870807 68.2772 -0.890608 68.2574 -0.916995C68.2508 -0.923592 68.1913 -1.00274 68.2376 -0.943369C68.1979 -0.996144 68.1649 -1.04233 68.1319 -1.0951C68.0658 -1.18746 68.013 -1.28642 67.9601 -1.38537C67.9337 -1.43814 67.9073 -1.49752 67.8808 -1.55029C67.8742 -1.56349 67.8412 -1.64925 67.8676 -1.57668C67.8544 -1.60307 67.8478 -1.63604 67.8346 -1.66243C67.7686 -1.83395 67.5902 -1.9725 67.3986 -1.90653C67.2269 -1.85375 67.0816 -1.65585 67.1542 -1.47113C67.5506 -0.422226 68.4093 0.402396 69.486 0.745435C69.6644 0.79821 69.8824 0.679469 69.922 0.501353C69.9617 0.303446 69.8626 0.118724 69.671 0.0593521Z" fill="#EDE3DF"/>
<path d="M138.582 25.3585C133.912 20.6219 128.152 17.0662 121.83 14.9947C121.394 14.8496 121.209 15.5357 121.645 15.6742C127.855 17.7061 133.503 21.209 138.087 25.8532C138.397 26.1831 138.9 25.6817 138.582 25.3585Z" fill="#EDE3DF"/>
<path d="M67.4847 -22.1128C88.1343 -23.7488 107.674 -14.9881 124.803 -4.32095C129.665 -1.29298 134.407 1.90651 139.131 5.13899C139.507 5.39627 139.864 4.78274 139.487 4.52546C130.979 -1.29959 122.378 -7.03229 113.216 -11.7952C104.18 -16.4922 94.5616 -20.2195 84.4945 -21.9676C78.8796 -22.9374 73.1656 -23.2804 67.4847 -22.8318C67.0355 -22.7791 67.0289 -22.0732 67.4847 -22.1128Z" fill="#EDE3DF"/>
<path d="M148.571 7.42151C137.169 -3.14672 123.462 -10.7397 109.544 -17.4752C105.58 -19.3949 101.584 -21.2552 97.5875 -23.1089C97.1779 -23.3002 96.8146 -22.6933 97.2308 -22.4954C111.169 -16.0239 125.226 -9.47975 137.75 -0.48158C141.357 2.111 144.819 4.90808 148.075 7.92946C148.399 8.23292 148.901 7.73156 148.571 7.42151Z" fill="#EDE3DF"/>
<path d="M127.167 1.18742C120.74 -4.36056 113.308 -8.65514 105.289 -11.4456C104.86 -11.5974 104.675 -10.9113 105.104 -10.7661C113.004 -8.01524 120.337 -3.78003 126.665 1.6888C127.009 1.98566 127.511 1.48428 127.167 1.18742Z" fill="#EDE3DF"/>
<path d="M151.259 11.2213C156.682 13.9854 159.912 20.2987 158.908 26.3084C158.836 26.7504 159.516 26.9417 159.589 26.4931C160.646 20.1799 157.336 13.5236 151.616 10.6078C151.206 10.4033 150.849 11.0168 151.259 11.2213Z" fill="#EDE3DF"/>
<path d="M106.914 8.81348C98.5117 4.29461 89.7656 0.428833 80.762 -2.74427C80.3326 -2.896 80.1477 -2.21652 80.5771 -2.06479C89.5212 1.09512 98.2078 4.93452 106.557 9.42701C106.954 9.6447 107.311 9.03118 106.914 8.81348Z" fill="#EDE3DF"/>
<path d="M110.739 103.38C112.146 106.85 112.846 110.557 112.8 114.298C112.793 114.753 113.5 114.753 113.507 114.298C113.553 110.498 112.846 106.718 111.419 103.189C111.254 102.773 110.567 102.958 110.739 103.38Z" fill="#EDE3DF"/>
<path d="M107.846 105.168C109.504 108.004 110.376 111.23 110.376 114.522C110.376 114.977 111.083 114.977 111.083 114.522C111.083 111.112 110.178 107.754 108.454 104.811C108.229 104.416 107.615 104.772 107.846 105.168Z" fill="#EDE3DF"/>
<path d="M104.721 97.9045C105.659 99.6791 106.597 101.46 107.535 103.235C107.747 103.637 108.361 103.281 108.15 102.879C107.212 101.104 106.274 99.3228 105.336 97.5483C105.124 97.1459 104.51 97.5021 104.721 97.9045Z" fill="#EDE3DF"/>
<path d="M104.154 101.447C106.492 105.768 107.912 110.531 108.322 115.426C108.361 115.874 109.068 115.881 109.029 115.426C108.613 110.406 107.166 105.531 104.768 101.091C104.543 100.688 103.936 101.051 104.154 101.447Z" fill="#EDE3DF"/>
<path d="M104.398 110.366C105.878 113.19 106.604 116.349 106.525 119.536C106.512 119.991 107.219 119.991 107.232 119.536C107.318 116.224 106.551 112.939 105.012 110.01C104.801 109.607 104.187 109.964 104.398 110.366Z" fill="#EDE3DF"/>
<path d="M101.69 100.866C103.057 103.512 103.962 106.388 104.338 109.35C104.398 109.792 105.105 109.799 105.045 109.35C104.649 106.263 103.731 103.281 102.297 100.51C102.093 100.108 101.485 100.464 101.69 100.866Z" fill="#EDE3DF"/>
<path d="M102.131 108.803C103.413 112.154 104.14 115.677 104.285 119.265C104.305 119.72 105.012 119.72 104.992 119.265C104.846 115.624 104.12 112.022 102.818 108.618C102.653 108.189 101.966 108.374 102.131 108.803Z" fill="#EDE3DF"/>
<path d="M101.168 111.276C101.927 113.203 102.291 115.241 102.244 117.306C102.231 117.761 102.945 117.761 102.951 117.306C102.997 115.182 102.628 113.064 101.848 111.085C101.683 110.67 100.996 110.854 101.168 111.276Z" fill="#EDE3DF"/>
<path d="M94.7534 141.563C90.9221 138.693 88.0089 134.689 86.4632 130.163C86.3179 129.735 85.6309 129.919 85.7828 130.348C87.3946 135.058 90.4068 139.188 94.3967 142.17C94.76 142.447 95.1167 141.833 94.7534 141.563Z" fill="#EDE3DF"/>
<path d="M91.3049 141.754C89.6205 140.573 88.1011 139.181 86.7734 137.611C86.4761 137.262 85.9807 137.763 86.2714 138.113C87.6387 139.729 89.2109 141.154 90.9482 142.368C91.3181 142.625 91.6749 142.011 91.3049 141.754Z" fill="#EDE3DF"/>
<path d="M88.795 142.618C85.7498 140.817 83.0546 138.442 80.921 135.626C78.8336 132.875 77.6643 129.49 75.2995 126.951C74.989 126.614 74.487 127.116 74.7974 127.452C76.0856 128.837 76.9641 130.506 77.8691 132.149C78.7014 133.66 79.613 135.104 80.6766 136.457C82.8168 139.175 85.4591 141.464 88.4383 143.225C88.8347 143.463 89.1914 142.856 88.795 142.618Z" fill="#EDE3DF"/>
<path d="M86.1393 144.037C82.2023 142.031 78.8664 138.99 76.5147 135.256C76.2703 134.874 75.6626 135.223 75.9004 135.612C78.3115 139.445 81.7399 142.585 85.776 144.644C86.1921 144.855 86.5488 144.248 86.1393 144.037Z" fill="#EDE3DF"/>
<path d="M80.3859 142.909C75.7222 138.799 71.4879 134.22 67.7623 129.253C67.4915 128.89 66.8771 129.246 67.1479 129.609C70.9132 134.629 75.1739 139.254 79.8838 143.41C80.2273 143.713 80.7294 143.212 80.3859 142.909Z" fill="#EDE3DF"/>
<path d="M77.691 143.258C72.3931 138.845 67.6899 133.752 63.7198 128.118C63.4622 127.749 62.8479 128.099 63.1055 128.475C67.1086 134.161 71.8383 139.307 77.1823 143.76C77.539 144.05 78.0411 143.548 77.691 143.258Z" fill="#EDE3DF"/>
<path d="M68.2051 136.754C65.6421 133.581 63.2706 130.256 61.1039 126.799C60.8595 126.416 60.2518 126.766 60.4896 127.155C62.6893 130.665 65.0938 134.036 67.7031 137.248C67.9937 137.611 68.4891 137.103 68.2051 136.754Z" fill="#EDE3DF"/>
<path d="M74.2357 131.628C72.4059 129.279 70.5761 126.924 68.7463 124.576C68.4689 124.22 67.9669 124.721 68.2443 125.077C70.0741 127.426 71.9039 129.781 73.7337 132.129C74.0177 132.485 74.5132 131.984 74.2357 131.628Z" fill="#EDE3DF"/>
<path d="M70.6358 129.108C68.8456 127.149 67.0489 125.189 65.2587 123.223C64.9482 122.887 64.4528 123.388 64.7567 123.725C66.5468 125.684 68.3436 127.643 70.1337 129.609C70.4442 129.946 70.9462 129.444 70.6358 129.108Z" fill="#EDE3DF"/>
<path d="M66.0181 125.875C65.265 124.84 64.512 123.811 63.7589 122.775C63.6466 122.623 63.4484 122.544 63.2767 122.649C63.1248 122.735 63.0389 122.979 63.1512 123.131C63.9042 124.167 64.6573 125.196 65.4103 126.232C65.5226 126.383 65.7208 126.462 65.8926 126.357C66.0445 126.271 66.1304 126.034 66.0181 125.875Z" fill="#EDE3DF"/>
<path d="M99.4301 116.956C100.963 120.974 101.65 125.255 101.451 129.55C101.432 130.005 102.138 130.005 102.158 129.55C102.363 125.196 101.669 120.842 100.117 116.765C99.952 116.349 99.265 116.534 99.4301 116.956Z" fill="#EDE3DF"/>
<path d="M98.6839 124.285C99.1728 127.551 99.3643 130.856 99.2784 134.161C99.2652 134.616 99.972 134.616 99.9853 134.161C100.071 130.79 99.8597 127.426 99.3643 124.094C99.3049 123.646 98.6179 123.837 98.6839 124.285Z" fill="#EDE3DF"/>
<path d="M97.2038 131.364C97.1245 132.591 97.2632 133.825 97.6001 135.005C97.7256 135.441 98.406 135.256 98.2805 134.821C97.9568 133.693 97.8313 132.532 97.904 131.364C97.9436 130.909 97.2368 130.909 97.2038 131.364Z" fill="#EDE3DF"/>
<path d="M105.111 120.974C105.269 123.474 105.111 125.981 104.635 128.435C104.549 128.877 105.23 129.068 105.316 128.62C105.805 126.1 105.976 123.533 105.818 120.967C105.791 120.525 105.078 120.519 105.111 120.974Z" fill="#EDE3DF"/>
<path d="M105.501 131.344C105.012 133.059 104.523 134.768 104.041 136.483C103.915 136.919 104.596 137.11 104.721 136.668C105.21 134.953 105.699 133.244 106.181 131.529C106.307 131.093 105.62 130.902 105.501 131.344Z" fill="#EDE3DF"/>
<path d="M78.0602 152.547C71.8376 147.665 66.9956 141.167 64.1485 133.792C63.9834 133.369 63.303 133.554 63.4681 133.976C66.3614 141.464 71.2365 148.087 77.5648 153.048C77.9149 153.325 78.4169 152.824 78.0602 152.547Z" fill="#EDE3DF"/>
<path d="M82.0838 159.671C76.165 156.716 71.138 152.177 67.6172 146.576C67.3728 146.194 66.765 146.543 67.0028 146.933C70.5832 152.626 75.7026 157.27 81.727 160.278C82.13 160.483 82.4867 159.876 82.0838 159.671Z" fill="#EDE3DF"/>
<path d="M72.7623 157.191C68.178 153.78 64.5844 149.169 62.3583 143.911C62.1799 143.496 61.5722 143.852 61.744 144.267C64.0163 149.644 67.7156 154.321 72.399 157.798C72.769 158.075 73.119 157.461 72.7623 157.191Z" fill="#EDE3DF"/>
<path d="M69.4396 158.431C66.6387 155.924 64.3796 152.876 62.7942 149.472C62.6026 149.063 61.9949 149.42 62.1799 149.829C63.7851 153.285 66.0971 156.393 68.9375 158.932C69.281 159.229 69.7831 158.734 69.4396 158.431Z" fill="#EDE3DF"/>
<path d="M64.7035 155.832C63.8976 155.317 63.2635 154.499 62.9662 153.595C62.9068 153.417 62.7218 153.299 62.5303 153.351C62.3519 153.398 62.2264 153.602 62.2858 153.787C62.6426 154.882 63.3758 155.825 64.3534 156.445C64.512 156.551 64.7432 156.478 64.8357 156.32C64.9281 156.148 64.8621 155.937 64.7035 155.832Z" fill="#EDE3DF"/>
<path d="M95.658 144.578C96.4969 146.141 96.4309 148.087 95.4994 149.591C95.2616 149.98 95.8694 150.337 96.1138 149.947C97.1773 148.226 97.2301 145.996 96.2723 144.221C96.0543 143.819 95.4466 144.175 95.658 144.578Z" fill="#EDE3DF"/>
<path d="M94.06 146.82C94.899 148.938 94.8725 151.293 93.9874 153.391C93.809 153.807 94.496 153.991 94.6678 153.576C95.5926 151.379 95.619 148.846 94.7404 146.629C94.5753 146.214 93.8883 146.398 94.06 146.82Z" fill="#EDE3DF"/>
<path d="M91.7405 147.843C92.4473 149.532 92.6983 151.359 92.4803 153.18C92.4539 153.371 92.6587 153.53 92.8371 153.536C93.0484 153.536 93.1673 153.371 93.1938 153.18C93.4184 151.306 93.1541 149.393 92.4275 147.658C92.3548 147.48 92.1963 147.361 91.9915 147.414C91.8198 147.454 91.6678 147.665 91.7405 147.843Z" fill="#EDE3DF"/>
<path d="M88.4978 146.814C88.9272 148.404 89.35 150 89.7794 151.59C89.8983 152.032 90.5786 151.841 90.4597 151.405C90.0304 149.815 89.6076 148.219 89.1782 146.629C89.0659 146.187 88.3789 146.378 88.4978 146.814Z" fill="#EDE3DF"/>
<path d="M89.9381 157.151C90.3014 156.175 90.1363 155.007 89.5021 154.183C89.3832 154.031 89.1983 153.952 89.0199 154.057C88.868 154.143 88.7755 154.387 88.8944 154.539C89.4361 155.245 89.5682 156.142 89.2577 156.967C89.1917 157.145 89.3304 157.356 89.5021 157.402C89.7003 157.455 89.8654 157.329 89.9381 157.151Z" fill="#EDE3DF"/>
<path d="M88.2136 155.449C88.3061 151.709 86.8594 148.028 84.2502 145.343C83.9331 145.013 83.431 145.514 83.7481 145.844C86.2253 148.404 87.5861 151.893 87.5002 155.456C87.5002 155.904 88.207 155.904 88.2136 155.449Z" fill="#EDE3DF"/>
<path d="M86.0205 153.747C84.4682 149.994 82.1694 146.59 79.243 143.766C78.9127 143.449 78.4173 143.951 78.741 144.268C81.5748 146.999 83.834 150.297 85.3335 153.939C85.5119 154.348 86.1989 154.169 86.0205 153.747Z" fill="#EDE3DF"/>
<path d="M55.6403 137.433C56.6047 141.299 56.8227 145.316 56.2612 149.268C56.1952 149.71 56.8821 149.908 56.9416 149.453C57.5229 145.376 57.3181 141.24 56.3207 137.242C56.215 136.8 55.528 136.991 55.6403 137.433Z" fill="#EDE3DF"/>
<path d="M59.1479 132.855C59.4253 137.73 59.2536 142.612 58.6392 147.454C58.5798 147.902 59.2932 147.902 59.346 147.454C59.9604 142.612 60.1321 137.73 59.8547 132.855C59.8283 132.4 59.1215 132.4 59.1479 132.855Z" fill="#EDE3DF"/>
<path d="M57.8672 150.719C57.1339 153.866 56.4007 157.013 55.6675 160.166C55.5618 160.608 56.2488 160.799 56.3479 160.351C57.0811 157.204 57.8143 154.057 58.5476 150.904C58.6533 150.462 57.9663 150.277 57.8672 150.719Z" fill="#EDE3DF"/>
<path d="M52.0335 164.54C51.0559 165.668 49.7876 166.506 48.3608 166.948C47.9248 167.08 48.1097 167.766 48.5457 167.627C50.0849 167.152 51.4721 166.255 52.529 165.035C52.8328 164.698 52.3374 164.197 52.0335 164.54Z" fill="#EDE3DF"/>
<path d="M135.115 130.539C135.049 130.559 134.976 130.566 134.916 130.586C134.936 130.579 135.002 130.579 134.943 130.579C134.923 130.579 134.91 130.579 134.89 130.586C134.857 130.586 134.824 130.586 134.791 130.586C134.758 130.586 134.725 130.579 134.692 130.579C134.718 130.579 134.771 130.592 134.718 130.579C134.698 130.579 134.685 130.572 134.665 130.572C134.599 130.559 134.533 130.539 134.467 130.513C134.421 130.5 134.48 130.52 134.494 130.526C134.474 130.52 134.454 130.506 134.441 130.5C134.408 130.487 134.381 130.467 134.348 130.454C134.322 130.434 134.289 130.421 134.262 130.401C134.249 130.394 134.243 130.381 134.229 130.374C134.309 130.427 134.262 130.401 134.243 130.388C134.19 130.341 134.144 130.295 134.097 130.242C134.058 130.196 134.097 130.236 134.111 130.256C134.104 130.242 134.091 130.229 134.084 130.216C134.064 130.183 134.044 130.15 134.025 130.117C133.939 129.952 133.701 129.886 133.542 129.992C133.377 130.097 133.318 130.302 133.417 130.473C133.767 131.12 134.606 131.45 135.306 131.212C135.478 131.153 135.617 130.968 135.551 130.777C135.491 130.612 135.306 130.473 135.115 130.539Z" fill="#EDE3DF"/>
<path d="M134.507 131.991C131.118 130.15 128.317 127.366 126.448 124.002C126.23 123.606 125.615 123.962 125.833 124.358C127.756 127.821 130.662 130.704 134.15 132.598C134.553 132.815 134.91 132.208 134.507 131.991Z" fill="#EDE3DF"/>
<path d="M130.517 130.783C128.04 128.593 125.787 126.152 123.812 123.5C123.541 123.138 122.927 123.494 123.198 123.857C125.206 126.561 127.485 129.055 130.015 131.285C130.358 131.582 130.86 131.08 130.517 130.783Z" fill="#EDE3DF"/>
<path d="M126.051 128.138C124.968 127.597 124.109 126.753 123.548 125.677C123.462 125.506 123.224 125.46 123.066 125.552C122.894 125.651 122.848 125.869 122.94 126.034C123.541 127.195 124.525 128.158 125.695 128.745C125.866 128.831 126.078 128.791 126.177 128.62C126.269 128.468 126.223 128.224 126.051 128.138Z" fill="#EDE3DF"/>
<path d="M122.537 128.369C122.358 128.29 122.187 128.191 122.028 128.079C122.008 128.066 121.995 128.052 121.975 128.039C121.962 128.026 121.949 128.019 121.936 128.006C121.949 128.013 121.955 128.019 121.969 128.033C121.936 128.033 121.87 127.953 121.85 127.934C121.777 127.874 121.704 127.808 121.638 127.736C121.572 127.67 121.506 127.597 121.447 127.525C121.44 127.511 121.381 127.445 121.44 127.511C121.427 127.498 121.414 127.478 121.401 127.459C121.374 127.419 121.348 127.379 121.321 127.34C121.268 127.261 121.222 127.182 121.176 127.096C121.15 127.05 121.13 127.003 121.103 126.957C121.09 126.931 121.083 126.911 121.07 126.885C121.037 126.819 121.097 126.944 121.064 126.871C121.024 126.786 120.984 126.713 120.899 126.66C120.826 126.614 120.714 126.594 120.628 126.627C120.463 126.68 120.304 126.878 120.383 127.063C120.727 127.901 121.361 128.6 122.193 128.976C122.358 129.055 122.583 129.029 122.675 128.851C122.748 128.699 122.722 128.455 122.537 128.369Z" fill="#EDE3DF"/>
<path d="M51.9484 148.061C52.7213 152.375 52.173 156.861 50.3696 160.852C50.1846 161.261 50.7924 161.624 50.9839 161.208C52.8732 157.026 53.4479 152.388 52.6354 147.869C52.5495 147.421 51.8691 147.612 51.9484 148.061Z" fill="#EDE3DF"/>
<path d="M43.4063 158.24C43.2148 158.734 43.0232 159.229 42.825 159.724C42.759 159.896 42.8977 160.12 43.0695 160.159C43.2742 160.206 43.4328 160.1 43.5054 159.915C43.697 159.421 43.8886 158.926 44.0867 158.431C44.1528 158.26 44.0141 158.035 43.8423 157.996C43.6375 157.943 43.479 158.055 43.4063 158.24Z" fill="#EDE3DF"/>
<path d="M98.3596 102.978C98.8748 106.916 98.3596 110.9 96.8535 114.575C96.6817 114.997 97.3687 115.182 97.5338 114.76C99.0532 111.039 99.5882 106.962 99.0664 102.978C99.0135 102.529 98.3001 102.522 98.3596 102.978Z" fill="#EDE3DF"/>
<path d="M96.1739 106.408C96.055 109.904 95.2953 113.341 93.9543 116.574C93.7826 116.996 94.463 117.174 94.6347 116.758C96.0021 113.467 96.7552 109.957 96.8807 106.401C96.8939 105.953 96.1871 105.953 96.1739 106.408Z" fill="#EDE3DF"/>
<path d="M95.6057 116.844C95.249 117.656 94.8923 118.46 94.529 119.272C94.4497 119.443 94.4761 119.654 94.6545 119.753C94.8064 119.839 95.0641 119.8 95.1367 119.628C95.4934 118.817 95.8501 118.012 96.2134 117.2C96.2927 117.029 96.2663 116.818 96.0879 116.719C95.9426 116.633 95.685 116.673 95.6057 116.844Z" fill="#EDE3DF"/>
<path d="M80.7024 127.023C78.9849 126.548 77.2674 126.073 75.5499 125.598C75.1073 125.48 74.9223 126.159 75.3649 126.278C77.0824 126.753 78.7999 127.228 80.5174 127.703C80.9534 127.828 81.1383 127.142 80.7024 127.023Z" fill="#EDE3DF"/>
<path d="M76.4949 123.144C72.8089 121.614 69.1229 120.077 65.4369 118.546C65.0141 118.375 64.8358 119.054 65.2519 119.226C68.9379 120.756 72.6239 122.293 76.31 123.824C76.7261 124.002 76.9111 123.316 76.4949 123.144Z" fill="#EDE3DF"/>
<path d="M72.5906 123.646C70.2852 122.715 67.9864 121.785 65.681 120.855C65.2582 120.684 65.0733 121.37 65.496 121.535C67.8014 122.465 70.1002 123.395 72.4057 124.325C72.8218 124.497 73.0068 123.811 72.5906 123.646Z" fill="#EDE3DF"/>
<path d="M73.985 118.124C71.7324 117.115 69.7243 115.63 68.0993 113.77C67.802 113.427 67.3 113.928 67.5972 114.271C69.2553 116.171 71.3229 117.702 73.6217 118.738C74.0378 118.922 74.3945 118.315 73.985 118.124Z" fill="#EDE3DF"/>
<path d="M82.2087 119.008C78.0207 116.224 74.1431 112.998 70.6354 109.39C70.3184 109.06 69.8163 109.561 70.1334 109.891C73.6807 113.539 77.6111 116.798 81.852 119.621C82.2351 119.872 82.5852 119.259 82.2087 119.008Z" fill="#EDE3DF"/>
<path d="M73.5491 114.159C70.8869 112.233 68.4098 110.063 66.144 107.688C65.8269 107.358 65.3315 107.859 65.642 108.189C67.954 110.61 70.4774 112.813 73.1923 114.773C73.5623 115.037 73.9124 114.423 73.5491 114.159Z" fill="#EDE3DF"/>
<path d="M87.3548 118.487C85.6704 116.481 83.9925 114.476 82.3081 112.47C82.0174 112.121 81.5154 112.622 81.806 112.972C83.4905 114.977 85.1683 116.983 86.8528 118.988C87.1435 119.338 87.6455 118.836 87.3548 118.487Z" fill="#EDE3DF"/>
<path d="M90.3408 113.981C89.2244 112.424 88.108 110.861 86.9916 109.304C86.7274 108.935 86.1131 109.291 86.3773 109.66C87.4937 111.217 88.6101 112.78 89.7264 114.337C89.9973 114.707 90.6116 114.351 90.3408 113.981Z" fill="#EDE3DF"/>
<path d="M179.505 4.78935C168.361 5.20496 157.184 3.60191 146.615 0.046184C143.557 -0.982932 140.558 -2.17037 137.625 -3.51614C137.215 -3.70745 136.852 -3.09394 137.268 -2.90263C147.487 1.78117 158.525 4.59144 169.748 5.35668C172.998 5.57437 176.255 5.62055 179.512 5.49521C179.961 5.47541 179.961 4.76956 179.505 4.78935Z" fill="#EDE3DF"/>
<path d="M220.058 5.81187C212.95 3.31165 205.485 1.95928 197.955 1.81415C197.499 1.80756 197.499 2.51343 197.955 2.52003C205.426 2.67175 212.824 4.01092 219.873 6.49795C220.295 6.64968 220.48 5.9636 220.058 5.81187Z" fill="#EDE3DF"/>
<path d="M193.08 3.96475C190.556 4.12967 188.039 4.30118 185.516 4.4661C185.067 4.49909 185.06 5.20496 185.516 5.17198C188.039 5.00705 190.556 4.83553 193.08 4.6706C193.529 4.64422 193.535 3.93836 193.08 3.96475Z" fill="#EDE3DF"/>
<path d="M222.297 1.69542C221.286 -1.52387 218.333 -3.42378 215.533 -4.97405C211.873 -6.9993 208.108 -8.84642 204.276 -10.5286C196.627 -13.8864 188.68 -16.5648 180.555 -18.5109C175.951 -19.6126 171.294 -20.4768 166.597 -21.1101C166.155 -21.1694 165.957 -20.4899 166.412 -20.4306C182.491 -18.2602 198.166 -13.2993 212.54 -5.77887C215.922 -4.01091 220.375 -2.06481 221.616 1.88013C221.755 2.31553 222.436 2.13081 222.297 1.69542Z" fill="#EDE3DF"/>
</g>
</g>
<defs>
<clipPath id="clip0_96_6799">
<rect width="238" height="217" fill="white" transform="matrix(-1 0 0 -1 238 217)"/>
</clipPath>
</defs>
</svg>
